<svg width="217" height="67" viewBox="0 0 217 67" fill="none" xmlns="http://www.w3.org/2000/svg">
<g filter="url(#filter0_d_1001_134)">
<path d="M57.0508 13.2086C58.1571 13.8566 59.123 14.4345 60.0361 14.9775C60.2117 15.2402 60.159 15.4854 60.159 15.7306C60.159 16.6938 60.1766 17.6571 60.159 18.6203C60.1415 19.0231 60.2644 19.3033 60.5805 19.5836C64.075 22.6309 67.5695 25.6958 71.064 28.7607C71.2923 28.9533 71.5557 29.1285 71.7489 29.4612C65.4974 29.4612 59.281 29.4612 53.0119 29.4612C48.5867 23.5416 44.1264 17.6045 39.666 11.6499C39.6836 11.5973 39.7187 11.5623 39.7363 11.5098C45.0044 13.3312 50.2901 15.1526 55.6109 16.9915C55.6109 18.1825 55.6109 19.3384 55.6109 20.5118C56.0323 20.6169 56.4011 20.5818 56.8401 20.5468C56.9982 18.1299 56.9981 15.7481 57.0508 13.2086Z" fill="#0155CB"/>
<path d="M12.6758 39.6333C13.0797 39.8259 13.3255 40.1236 13.6416 40.3338C15.9069 41.91 18.4356 42.7332 21.1399 43.136C24.5642 43.6614 27.8655 43.101 31.1493 42.2603C35.7326 41.0869 40.2281 39.6157 44.7938 38.3548C48.1127 37.444 51.4492 36.6034 54.8559 36.113C58.0168 35.6577 61.1601 35.5701 64.2332 36.5859C68.2545 37.9169 70.9237 40.544 71.9597 44.7122C71.9773 44.8173 72.0475 44.9224 71.9773 45.0275C71.7841 45.08 71.7139 44.9049 71.6261 44.7998C69.0447 42.2603 65.919 40.7892 62.3718 40.1587C59.0704 39.5632 55.8217 40.001 52.5906 40.7191C48.9907 41.5247 45.4786 42.5931 41.9314 43.6264C38.2964 44.6947 34.6614 45.763 30.9386 46.5161C28.3924 47.024 25.8285 47.3743 23.2296 47.2692C20.9819 47.1641 18.8395 46.7263 16.8903 45.5529C14.7128 44.2569 13.2904 42.4004 12.6933 39.931C12.6758 39.8434 12.6758 39.7909 12.6758 39.6333Z" fill="#0155CB"/>
<path d="M71.9954 49.0233C71.7671 49.1108 71.6617 48.9882 71.5212 48.9182C68.6413 47.5696 65.6209 46.6764 62.46 46.3437C60.0191 46.0985 57.5958 46.3087 55.19 46.7465C50.835 47.5346 46.6732 48.9532 42.4763 50.3018C39.333 51.3176 36.1721 52.3333 32.941 53.0339C30.1664 53.6294 27.3743 54.0322 24.5295 53.8921C22.1589 53.787 19.8585 53.3666 17.7863 52.1407C15.1523 50.5995 13.6948 48.2702 13.1855 45.2929C13.1504 45.1002 13.1153 44.9076 13.2206 44.6624C13.5718 45.1352 13.8352 45.6431 14.204 46.046C15.4508 47.412 16.9961 48.2877 18.717 48.8832C22.2116 50.1266 25.7763 50.3193 29.4113 49.6012C32.7829 48.9182 36.0843 47.9374 39.3681 46.9041C43.688 45.5381 47.9903 44.0494 52.4155 43.0336C54.4525 42.5607 56.4895 42.1229 58.5968 42.193C62.583 42.298 66.3233 43.2438 69.5369 45.7307C70.731 46.694 71.6441 47.9199 71.9954 49.0233Z" fill="#0155CB"/>
<path d="M36.5572 11C41.0527 17.1823 45.4779 23.2771 49.991 29.4769C48.3754 29.4769 46.8652 29.4769 45.2848 29.4769C42.2995 25.3962 39.2615 21.2805 36.1885 17.0947C35.6617 17.6902 35.1875 18.2506 34.6958 18.8111C29.8492 24.468 25.0025 30.1249 20.1734 35.7818C19.9626 36.027 19.7695 36.2021 19.4007 36.1846C17.7149 36.1671 16.0291 36.1671 14.3257 36.1671C14.2379 36.1671 14.1501 36.1496 13.9043 36.1145C21.4904 27.708 28.9887 19.4065 36.5572 11Z" fill="#0155CB"/>
<path d="M38.6995 36.1349C36.4518 36.1349 34.2392 36.1349 32.0441 36.1349C31.851 35.8897 31.9212 35.627 31.9212 35.3643C31.9212 33.6655 31.9915 31.9492 31.9036 30.2503C31.7983 28.4464 33.3085 27.1154 34.7836 26.9052C36.2938 26.6951 37.7513 27.3431 38.4888 28.6216C38.6469 28.9018 38.7698 29.1995 38.7698 29.5498C38.7698 31.6339 38.7698 33.7005 38.7698 35.7846C38.7522 35.8722 38.7171 35.9598 38.6995 36.1349Z" fill="#0155CB"/>
<path d="M136.421 42.4566C136.308 41.8558 136.324 26.822 136.438 26.27C138.342 26.27 140.263 26.27 142.199 26.27C142.297 26.9681 142.232 27.65 142.248 28.3156C142.443 28.413 142.476 28.2507 142.557 28.1695C144.087 26.4486 146.008 25.7829 148.286 25.8803C150.174 25.9615 151.655 26.6596 152.632 28.3319C152.664 28.3806 152.713 28.413 152.778 28.4942C153.088 28.202 153.397 27.926 153.706 27.6338C154.976 26.4161 156.489 25.8641 158.247 25.8803C159.419 25.8966 160.558 26.0265 161.583 26.6596C162.885 27.4714 163.52 28.7053 163.797 30.1502C163.943 30.8646 163.992 31.5952 163.992 32.3257C163.992 35.4754 163.992 38.6088 163.992 41.7584C163.992 41.9857 164.025 42.1968 163.911 42.4566C161.876 42.4566 159.809 42.4566 157.742 42.4566C157.628 42.1643 157.677 41.8721 157.677 41.5961C157.677 38.8036 157.677 35.9949 157.677 33.2025C157.677 32.6829 157.596 32.1959 157.336 31.7413C156.44 30.2801 154.455 30.686 153.804 31.8874C153.446 32.5693 153.332 33.3161 153.332 34.0629C153.332 36.5794 153.332 39.0959 153.332 41.6123C153.332 41.8721 153.332 42.1318 153.332 42.4566C151.232 42.4566 149.181 42.4566 147.131 42.4566C146.968 42.2293 147.033 42.002 147.033 41.7747C147.033 39.0147 147.033 36.2547 147.017 33.4947C147.017 33.17 146.984 32.8453 146.952 32.5206C146.887 31.7413 146.512 31.173 145.764 30.897C145.031 30.6373 144.315 30.7509 143.697 31.238C143.192 31.6276 142.932 32.1634 142.818 32.7803C142.736 33.2674 142.688 33.7382 142.688 34.2253C142.688 36.8067 142.688 39.3719 142.688 41.9533C142.688 42.0994 142.704 42.2455 142.606 42.4241C140.572 42.4566 138.505 42.4566 136.421 42.4566Z" fill="#0155CB"/>
<path d="M178.867 40.0302C178.314 40.6634 177.826 41.1991 177.224 41.6213C175.189 43.0662 172.959 43.261 170.665 42.433C168.842 41.7836 167.995 40.2737 167.686 38.4391C167.572 37.7573 167.54 37.0754 167.54 36.3773C167.556 33.3088 167.54 30.2566 167.54 27.1881C167.54 26.9121 167.507 26.6199 167.588 26.2789C169.639 26.2789 171.69 26.2789 173.757 26.2789C173.936 26.49 173.871 26.7498 173.871 26.977C173.871 29.5909 173.871 32.2048 173.871 34.8187C173.871 35.1759 173.887 35.5493 173.92 35.9064C174.017 37.0267 174.554 37.6923 175.498 37.8709C176.605 38.0657 177.582 37.6111 178.037 36.6533C178.265 36.1824 178.379 35.6629 178.412 35.1272C178.493 33.5848 178.428 32.0425 178.444 30.5001C178.461 29.2987 178.444 28.1135 178.444 26.9121C178.444 26.7173 178.412 26.5062 178.542 26.2627C180.576 26.2627 182.627 26.2627 184.727 26.2627C184.727 31.6528 184.727 37.0267 184.727 42.4493C182.806 42.4493 180.902 42.4493 178.916 42.4493C178.835 41.7024 178.949 40.9069 178.867 40.0302Z" fill="#0155CB"/>
<path d="M112.757 36.8827C112.757 38.7985 112.757 40.6006 112.757 42.4514C106.849 42.4514 100.941 42.4514 95 42.4514C95 35.0157 95 27.5962 95 20.1279C97.3111 20.1279 99.6222 20.1279 101.982 20.1279C101.982 25.6966 101.982 31.2491 101.982 36.8665C105.595 36.8827 109.127 36.8827 112.757 36.8827Z" fill="#0155CB"/>
<path d="M187.428 37.9336C189.511 37.7387 191.545 37.5439 193.531 37.3653C193.629 37.4627 193.661 37.479 193.678 37.5114C194.377 39.5733 196.461 39.622 197.925 39.135C198.072 39.0863 198.218 38.9888 198.349 38.8914C198.723 38.6317 198.951 38.2907 198.918 37.8199C198.869 37.3004 198.544 37.0244 198.104 36.8458C197.567 36.6347 197.014 36.5373 196.461 36.4237C194.882 36.1314 193.303 35.8717 191.757 35.4496C189.495 34.8326 188.014 32.998 188.079 30.8225C188.128 29.0691 189.023 27.8028 190.504 26.9261C191.497 26.3416 192.587 26.0656 193.694 25.9844C195.728 25.8221 197.763 25.7409 199.765 26.1792C201.913 26.6338 203.296 27.9976 204.061 30.0108C204.078 30.0595 204.061 30.1244 204.061 30.2868C202.125 30.4816 200.171 30.6764 198.251 30.855C197.437 29.41 196.168 28.9068 194.67 29.3451C194.426 29.4263 194.215 29.5237 194.036 29.7023C193.482 30.238 193.596 30.9686 194.28 31.3096C194.914 31.618 195.598 31.683 196.282 31.7804C197.714 31.9752 199.146 32.1213 200.546 32.511C201.978 32.9006 203.248 33.5663 204.029 34.8813C205.331 37.0244 204.615 39.8656 202.434 41.3754C201.262 42.1872 199.944 42.5768 198.56 42.7392C196.412 42.9827 194.247 42.9503 192.131 42.5119C189.95 42.0735 188.355 40.8721 187.574 38.7291C187.525 38.583 187.477 38.4206 187.444 38.2583C187.428 38.1933 187.444 38.1121 187.428 37.9336Z" fill="#0155CB"/>
<path d="M176.477 16.4035C175.924 16.5497 175.403 16.6633 174.899 16.712C174.85 16.6471 174.785 16.6146 174.768 16.5659C174.264 15.6567 173.71 15.3807 172.669 15.4944C171.823 15.5918 171.139 16.1762 170.911 17.0529C170.716 17.7998 170.732 18.5466 170.944 19.2772C171.302 20.5435 172.441 21.1442 173.776 20.7708C174.166 20.6572 174.541 20.4948 174.866 20.2188C174.931 19.9266 174.899 19.6344 174.866 19.2772C174.264 19.2772 173.71 19.2772 173.125 19.2772C172.994 18.7901 173.059 18.3518 173.076 17.8647C174.264 17.8485 175.387 17.8322 176.477 17.8809C176.656 18.0595 176.608 18.2219 176.608 18.3842C176.608 19.0499 176.559 19.7318 176.624 20.3974C176.673 20.9981 176.445 21.3391 175.94 21.6151C174.768 22.2482 173.531 22.508 172.229 22.2969C170.114 21.956 168.779 19.9591 169.056 17.6699C169.235 16.2412 169.804 15.0398 171.188 14.4228C172.49 13.8384 173.841 13.8546 175.126 14.504C175.875 14.8612 176.298 15.5106 176.477 16.4035Z" fill="#0155CB"/>
<path d="M186.271 22.1681C186.125 21.9896 186.239 21.7785 186.076 21.5999C185.523 22.0383 184.92 22.3792 184.155 22.3305C183.163 22.2818 182.463 21.7623 182.365 20.7719C182.202 19.327 182.333 17.8658 182.3 16.4046C182.87 16.2747 183.358 16.3235 183.862 16.3722C183.96 16.843 183.911 17.2651 183.911 17.6872C183.928 18.434 183.911 19.1809 183.928 19.9277C183.944 20.7557 184.188 21.0479 184.79 21.0641C185.474 21.0804 185.897 20.6745 185.962 19.9439C186.06 18.9536 185.978 17.9632 186.011 16.9729C186.011 16.778 185.962 16.567 186.108 16.3559C186.564 16.3559 187.052 16.3559 187.59 16.3559C187.59 18.2879 187.59 20.1874 187.59 22.1357C187.15 22.2493 186.694 22.2331 186.271 22.1681Z" fill="#0155CB"/>
<path d="M179.455 22.1507C178.983 22.2319 178.511 22.2156 177.99 22.1507C177.99 20.2187 177.99 18.3192 177.99 16.3709C178.462 16.306 178.902 16.3222 179.309 16.3547C179.504 16.517 179.39 16.7281 179.488 16.9392C179.781 16.6145 180.057 16.306 180.497 16.2248C180.936 16.1436 181.327 16.2897 181.734 16.517C181.685 17.0041 181.441 17.3937 181.343 17.7834C181.18 17.8483 181.083 17.8321 180.985 17.7834C180.301 17.4587 179.797 17.8646 179.667 18.5627C179.504 19.4719 179.585 20.381 179.553 21.2902C179.536 21.5662 179.602 21.8584 179.455 22.1507Z" fill="#0155CB"/>
<path d="M171.331 50.6306C170.42 50.6306 169.508 50.6306 168.564 50.6306C168.564 49.072 168.564 47.5459 168.564 45.9873C169.508 45.9873 170.436 45.9873 171.348 45.9873C171.51 46.1334 171.478 46.2795 171.429 46.5068C170.729 46.6042 169.997 46.4906 169.264 46.5718C169.134 46.929 169.215 47.2861 169.215 47.6758C169.899 47.8381 170.599 47.6595 171.25 47.7894C171.396 47.9842 171.38 48.1466 171.201 48.3577C170.599 48.3577 169.948 48.3577 169.264 48.3577C169.15 48.9097 169.215 49.4292 169.215 50.0137C169.932 50.1598 170.664 49.9974 171.38 50.1111C171.429 50.3871 171.429 50.3871 171.331 50.6306Z" fill="#28343E"/>
<path d="M171.887 50.3825C171.79 50.1876 171.839 49.9928 171.855 49.798C172.131 49.7655 172.294 49.9766 172.506 50.0253C172.685 50.074 172.848 50.1552 173.043 50.1389C173.352 50.1227 173.71 50.1065 173.743 49.7168C173.775 49.3434 173.434 49.2947 173.157 49.2135C172.962 49.1648 172.75 49.1324 172.571 49.0674C172.115 48.9213 171.871 48.5966 171.855 48.1745C171.839 47.7524 172.099 47.3465 172.522 47.1841C173.108 46.9568 173.678 47.0542 174.198 47.2653C174.329 47.5088 174.312 47.7037 174.231 47.8985C172.75 47.4926 172.555 47.5413 172.587 48.2881C172.831 48.5804 173.206 48.5479 173.531 48.6453C174.15 48.8239 174.41 49.0836 174.41 49.5707C174.41 50.0902 174.068 50.4961 173.499 50.6422C173.01 50.8046 172.424 50.7072 171.887 50.3825Z" fill="#28343E"/>
<path d="M122.277 50.4335C122.179 50.2062 122.163 50.0276 122.277 49.8166C122.521 49.7841 122.684 49.9789 122.879 50.0439C123.188 50.1413 123.497 50.2225 123.823 50.0601C123.986 49.9789 124.1 49.8978 124.1 49.7029C124.1 49.5243 124.002 49.4107 123.839 49.3295C123.595 49.1996 123.335 49.2159 123.074 49.1347C122.439 48.9399 122.195 48.6314 122.244 48.0469C122.293 47.5599 122.667 47.1865 123.221 47.1215C123.676 47.0566 124.1 47.1215 124.588 47.3488C124.686 47.5274 124.686 47.7222 124.604 47.9171C124.376 47.9658 124.214 47.8034 124.034 47.7547C123.839 47.6898 123.644 47.6411 123.432 47.6735C123.188 47.7222 122.944 47.8034 122.928 48.1119C122.911 48.4041 123.139 48.4853 123.351 48.5502C123.579 48.6152 123.823 48.6476 124.067 48.7126C124.572 48.8749 124.767 49.1185 124.783 49.573C124.799 50.0439 124.604 50.401 124.165 50.5796C123.481 50.8394 122.863 50.7582 122.277 50.4335Z" fill="#28343E"/>
<path d="M182.042 47.1863C182.172 47.3486 182.139 47.511 182.074 47.6733C181.781 47.8357 181.44 47.6733 181.098 47.8194C181.065 48.5338 181.016 49.2482 181.147 49.93C181.423 50.2385 181.733 50.1573 182.026 50.1086C182.172 50.271 182.156 50.4171 182.091 50.5794C181.065 50.9691 180.447 50.5794 180.414 49.5242C180.398 48.9722 180.414 48.4364 180.414 47.9006C179.893 47.5435 179.893 47.3973 180.382 47.0402C180.463 46.7804 180.349 46.5044 180.479 46.2609C180.658 46.1472 180.821 46.1635 181 46.2446C181.179 46.5044 181.049 46.7966 181.13 47.0889C181.391 47.235 181.716 47.0726 182.042 47.1863Z" fill="#28343E"/>
<path d="M174.96 47.8818C174.391 47.5409 174.391 47.3785 174.96 46.9889C174.96 46.8915 174.96 46.7616 174.96 46.6479C174.96 46.5343 174.96 46.4044 174.96 46.307C175.123 46.1122 175.302 46.1609 175.481 46.2096C175.709 46.4531 175.498 46.8103 175.677 47.0863C175.953 47.2324 176.279 47.0863 176.572 47.1999C176.702 47.3623 176.702 47.5246 176.588 47.7032C176.311 47.8493 175.986 47.687 175.644 47.8493C175.563 48.4825 175.579 49.1319 175.644 49.7976C175.66 50.0249 175.839 50.1548 176.067 50.171C176.246 50.1872 176.425 50.171 176.621 50.171C176.767 50.4632 176.718 50.6418 176.344 50.723C175.514 50.8853 174.993 50.4957 174.96 49.6515C174.944 49.0345 174.96 48.4501 174.96 47.8818Z" fill="#28343E"/>
<path d="M134.094 50.1554C134.192 50.3015 134.176 50.4477 134.078 50.61C133.883 50.7399 133.655 50.7399 133.427 50.7237C132.841 50.7074 132.597 50.4801 132.467 49.9119C132.369 49.4898 132.434 49.0677 132.418 48.6455C132.402 48.402 132.418 48.1585 132.418 47.9312C131.897 47.5091 131.897 47.3954 132.402 47.0545C132.402 46.9246 132.418 46.7947 132.418 46.6486C132.418 46.535 132.402 46.4051 132.483 46.2752C132.63 46.1453 132.809 46.1615 132.988 46.2427C133.167 46.5025 132.988 46.811 133.134 47.087C133.411 47.2493 133.769 47.0869 134.078 47.2168C134.208 47.3629 134.208 47.5253 134.094 47.7039C133.801 47.8338 133.443 47.6877 133.085 47.85C133.085 48.4345 133.069 49.0514 133.085 49.6521C133.102 50.0255 133.33 50.1879 133.688 50.1879C133.801 50.1554 133.948 50.058 134.094 50.1554Z" fill="#28343E"/>
<path d="M146.627 51.8623C146.529 51.6837 146.529 51.5213 146.594 51.3752C146.627 51.359 146.659 51.3103 146.692 51.3103C147.392 51.3427 147.603 51.1966 147.62 50.531C147.652 49.638 147.62 48.7451 147.62 47.9171C147.457 47.6573 147.196 47.8359 147.034 47.6573C146.952 47.5274 146.952 47.3813 147.082 47.1865C147.424 47.1216 147.799 47.1216 148.189 47.2027C148.319 47.5437 148.254 47.9008 148.271 48.2418C148.287 48.9886 148.287 49.7354 148.271 50.4985C148.238 51.635 147.815 51.9921 146.627 51.8623Z" fill="#28343E"/>
<path d="M129.291 47.5593C129.698 47.3483 130.007 47.0723 130.43 47.1859C130.577 47.3645 130.577 47.5431 130.495 47.7379C130.381 47.8353 130.251 47.8028 130.137 47.8191C129.454 47.9003 129.291 48.0951 129.275 48.7932C129.258 49.3939 129.34 49.9946 129.226 50.5791C129.014 50.6927 128.852 50.6927 128.656 50.5628C128.656 49.4751 128.656 48.3711 128.656 47.2346C128.965 47.121 129.258 46.9911 129.291 47.5593Z" fill="#28343E"/>
<path d="M165.016 45.8189C165.195 45.7052 165.357 45.7539 165.569 45.8351C165.569 47.4099 165.569 48.9685 165.569 50.5433C165.423 50.7219 165.243 50.6732 165.016 50.6245C165.016 49.0172 165.016 47.4261 165.016 45.8189Z" fill="#28343E"/>
<path d="M131.572 50.6125C131.344 50.6774 131.197 50.6937 130.969 50.5475C130.953 49.476 130.937 48.3558 130.986 47.2356C131.083 47.1868 131.132 47.1544 131.197 47.1544C131.311 47.1381 131.441 47.1219 131.588 47.2518C131.572 48.3396 131.572 49.4598 131.572 50.6125Z" fill="#28343E"/>
<path d="M147.603 46.6004C147.505 46.3731 147.489 46.1945 147.603 46.0321C147.798 45.9185 147.994 45.9672 148.156 45.9997C148.303 46.1945 148.286 46.3731 148.205 46.5354C148.01 46.6815 147.814 46.6166 147.603 46.6004Z" fill="#28343E"/>
<path d="M131.587 46.0002C131.701 46.2112 131.685 46.3736 131.603 46.5359C131.392 46.6496 131.196 46.6496 131.001 46.5522C130.887 46.3736 130.92 46.2112 130.969 46.0327C131.164 45.9028 131.359 45.9352 131.587 46.0002Z" fill="#28343E"/>
<path fill-rule="evenodd" clip-rule="evenodd" d="M121.089 35.965H133.524V35.9646C133.524 35.3966 133.524 34.9421 133.54 34.4714C133.524 33.7408 133.426 33.0102 133.279 32.2959C132.71 29.4547 131.131 27.3928 128.332 26.4837C125.744 25.6557 123.075 25.5907 120.454 26.3375C117.671 27.1331 115.832 28.9676 115.018 31.7601C114.579 33.27 114.563 34.8123 114.856 36.3385C115.344 38.9523 117.264 41.9721 121.089 42.6215C123.205 42.9787 125.337 42.93 127.453 42.5728C129.878 42.1507 131.619 40.7707 132.905 38.7413C132.919 38.7184 132.936 38.695 132.954 38.6706C133.036 38.5564 133.135 38.4195 133.068 38.2055C132.16 38.1245 131.248 38.0402 130.334 37.9555C129.232 37.8535 128.125 37.7511 127.013 37.6535C125.972 38.9686 124.637 39.4719 123.058 38.9199C121.724 38.4653 121.252 37.345 121.089 35.965ZM121.14 32.852H127.065C126.967 30.7902 125.877 29.605 124.086 29.6375C122.41 29.6375 121.206 30.9525 121.14 32.852Z" fill="#0155CB"/>
<path fill-rule="evenodd" clip-rule="evenodd" d="M189.17 16.4014V24.3729C189.278 24.376 189.383 24.3804 189.485 24.3848C189.909 24.4026 190.297 24.4188 190.716 24.3404C190.773 23.8942 190.765 23.452 190.757 23.0079C190.749 22.5632 190.74 22.1164 190.797 21.6616L190.993 21.7915C192.067 22.7981 193.939 22.3597 194.557 20.8498C194.948 19.9082 194.964 18.9503 194.687 17.9924C194.166 16.2065 192.067 15.5896 190.83 16.8722C190.808 16.8938 190.772 16.9011 190.736 16.9083C190.718 16.9119 190.7 16.9155 190.684 16.9209C190.651 16.8559 190.65 16.783 190.648 16.7076C190.646 16.5947 190.644 16.4759 190.537 16.3689C190.098 16.3202 189.642 16.2877 189.17 16.4014ZM193.059 20.3344C193.189 20.0097 193.205 19.6687 193.205 19.2628C193.222 18.9219 193.189 18.5322 193.043 18.1913C192.847 17.8179 192.538 17.5744 192.082 17.5419C191.61 17.5094 191.204 17.688 191.008 18.1101C190.618 18.9219 190.634 19.7661 191.106 20.5454C191.334 20.9188 191.708 21.0974 192.148 21.0487C192.571 20.9838 192.896 20.7402 193.059 20.3344Z" fill="#0155CB"/>
<path fill-rule="evenodd" clip-rule="evenodd" d="M195.631 19.2622C195.647 21.1292 196.819 22.3307 198.674 22.3307C200.448 22.3307 201.734 21.0318 201.718 19.246C201.702 17.4763 200.416 16.21 198.658 16.21C196.9 16.21 195.631 17.4925 195.631 19.2622ZM199.081 20.9334C199.684 20.7385 200.025 20.1865 200.042 19.2611C200.039 19.2246 200.037 19.1862 200.034 19.1461C200.023 18.9541 200.009 18.7235 199.928 18.4818C199.7 17.8649 199.26 17.524 198.658 17.5402C198.056 17.5564 197.6 17.8974 197.421 18.5143C197.259 19.0825 197.259 19.6508 197.486 20.1865C197.747 20.836 198.43 21.1444 199.081 20.9334Z" fill="#0155CB"/>
<path fill-rule="evenodd" clip-rule="evenodd" d="M142.542 48.0377C143.193 48.3786 143.405 48.9144 143.242 49.5476C143.096 50.1808 142.624 50.5217 141.973 50.6191C141.37 50.7165 140.768 50.684 140.117 50.6353V45.9921L140.141 45.9905C140.865 45.9423 141.557 45.8963 142.249 46.0408C143.03 46.2194 143.307 47.0149 142.851 47.6643C142.806 47.7281 142.755 47.7868 142.696 47.8548L142.696 47.8548L142.696 47.8548C142.65 47.9078 142.599 47.9665 142.542 48.0377ZM140.799 50.0152C140.734 49.4795 140.734 48.9762 140.815 48.4404C141.189 48.3592 141.548 48.3592 141.906 48.4404C142.394 48.5378 142.573 48.7651 142.557 49.2359C142.557 49.6743 142.329 49.9503 141.873 50.0315C141.531 50.0802 141.189 50.0964 140.799 50.0152ZM140.785 46.6074C140.753 47.0295 140.736 47.4029 140.801 47.825C140.819 47.8265 140.837 47.828 140.855 47.8295C141.222 47.8602 141.532 47.8862 141.827 47.8088C142.169 47.7276 142.396 47.4191 142.364 47.0944C142.331 46.7372 142.087 46.5749 141.745 46.5587C141.669 46.5587 141.591 46.5557 141.513 46.5527C141.275 46.5435 141.03 46.5341 140.785 46.6074Z" fill="#28343E"/>
<path fill-rule="evenodd" clip-rule="evenodd" d="M115.795 49.6742C115.791 49.4061 115.787 49.1329 115.833 48.8597C116.386 48.7623 116.402 48.7623 116.663 49.087C116.834 49.2981 117 49.5173 117.167 49.7364C117.334 49.9556 117.501 50.1748 117.672 50.3858C117.981 50.7593 118.176 50.7917 118.665 50.532C118.16 49.9151 117.672 49.2983 117.184 48.6815L117.184 48.6811C117.254 48.5507 117.362 48.4823 117.468 48.4146C117.534 48.3727 117.6 48.3311 117.656 48.2753C118.372 47.5609 118.095 46.327 117.151 46.0673C116.5 45.8887 115.833 45.9374 115.133 46.0023V50.6131C115.361 50.6781 115.54 50.7106 115.735 50.5644C115.804 50.2791 115.8 49.9799 115.795 49.6742ZM116.136 46.5664C116.026 46.5728 115.913 46.5793 115.799 46.5793C115.799 46.6997 115.797 46.81 115.795 46.9137C115.791 47.1037 115.788 47.2718 115.799 47.4398C115.799 47.4969 115.794 47.5557 115.79 47.6155C115.775 47.8109 115.759 48.0164 115.896 48.2029C115.935 48.2054 115.973 48.2083 116.012 48.2111C116.463 48.2446 116.915 48.2781 117.215 47.8295C117.41 47.5535 117.475 47.2125 117.263 46.9203C116.977 46.5178 116.576 46.541 116.136 46.5664Z" fill="#28343E"/>
<path fill-rule="evenodd" clip-rule="evenodd" d="M156.18 46.0042C155.626 45.9231 155.057 45.9231 154.438 46.0042C154.438 47.5791 154.438 49.0889 154.422 50.5826C154.633 50.6962 154.812 50.6962 155.008 50.5988C155.093 50.3092 155.084 50.0061 155.076 49.7014C155.068 49.4254 155.06 49.148 155.122 48.8779C155.333 48.7642 155.529 48.7805 155.756 48.8454C155.914 49.0434 156.074 49.2472 156.236 49.4531C156.459 49.7367 156.686 50.0244 156.912 50.3066C157.254 50.7287 157.351 50.7612 157.97 50.5501C157.742 50.2645 157.518 49.9788 157.293 49.6917C157.018 49.3424 156.742 48.9908 156.456 48.6344C156.619 48.5207 156.733 48.4395 156.847 48.3584C157.319 47.9687 157.449 47.4492 157.303 46.8809C157.156 46.3289 156.733 46.0692 156.18 46.0042ZM155.451 46.5688C155.347 46.5747 155.241 46.5807 155.135 46.5807C155.086 47.1489 155.054 47.6684 155.151 48.2204C155.207 48.2222 155.262 48.2248 155.317 48.2273C155.764 48.248 156.198 48.2681 156.502 47.8632C156.698 47.6035 156.763 47.2625 156.567 46.9541C156.291 46.5212 155.888 46.544 155.451 46.5688Z" fill="#28343E"/>
<path fill-rule="evenodd" clip-rule="evenodd" d="M161.793 47.8378C163.193 47.5456 163.388 47.5943 163.535 48.2762C163.373 48.3625 163.218 48.3771 163.065 48.3915C162.988 48.3987 162.911 48.4059 162.835 48.4223C162.768 48.4367 162.699 48.4482 162.63 48.4599C162.464 48.4877 162.296 48.516 162.135 48.5846C161.565 48.8119 161.305 49.2827 161.435 49.8835C161.549 50.403 161.956 50.6952 162.542 50.7115C162.884 50.7277 163.16 50.5816 163.47 50.403C163.649 50.6465 163.877 50.7764 164.218 50.5491C164.221 50.4031 164.225 50.2556 164.229 50.1069C164.247 49.4124 164.266 48.6927 164.186 47.9839C164.121 47.5293 163.844 47.2371 163.405 47.1559C162.851 47.0585 162.282 47.0423 161.777 47.2533C161.691 47.353 161.693 47.4527 161.695 47.5415C161.695 47.5539 161.696 47.5661 161.696 47.578C161.696 47.5889 161.695 47.5998 161.695 47.6106C161.694 47.6968 161.692 47.7801 161.793 47.8378ZM162.821 50.1475C163.081 50.115 163.325 49.9851 163.537 49.7416C163.54 49.6818 163.546 49.6226 163.551 49.564C163.572 49.3363 163.592 49.1169 163.488 48.8974C163.293 48.8649 163.114 48.8811 162.935 48.9299C162.87 48.9542 162.8 48.9664 162.731 48.9786C162.662 48.9907 162.593 49.0029 162.528 49.0273C162.153 49.1571 161.974 49.4494 162.088 49.7741C162.202 50.1313 162.512 50.1962 162.821 50.1475Z" fill="#28343E"/>
<path fill-rule="evenodd" clip-rule="evenodd" d="M177.065 47.4011C177.048 47.5474 177.031 47.6859 177.14 47.8359C178.588 47.5274 178.865 47.6086 178.833 48.3067C178.668 48.3408 178.501 48.3609 178.334 48.3811C178.023 48.4186 177.713 48.456 177.417 48.5827C176.912 48.7938 176.684 49.2483 176.782 49.8166C176.88 50.3361 177.238 50.6446 177.791 50.6933C178.182 50.7258 178.507 50.5796 178.833 50.3848C179.028 50.6446 179.24 50.7582 179.598 50.5309C179.598 50.306 179.601 50.0799 179.605 49.8528C179.614 49.2442 179.624 48.6293 179.565 48.0145C179.516 47.5274 179.223 47.2189 178.768 47.1378C178.247 47.0403 177.71 47.0241 177.205 47.2189C177.176 47.2287 177.152 47.2503 177.127 47.2731C177.111 47.288 177.094 47.3035 177.075 47.3163C177.072 47.345 177.069 47.3732 177.065 47.4011ZM178.899 49.7549C178.931 49.4951 178.964 49.2191 178.866 48.9107C178.636 48.8724 178.447 48.9142 178.25 48.9574C178.196 48.9693 178.141 48.9813 178.085 48.9918C178.004 48.9918 177.938 49.0081 177.857 49.0405C177.532 49.1542 177.385 49.3977 177.45 49.7386C177.499 50.0309 177.792 50.2095 178.15 50.1608C178.443 50.1283 178.687 49.9822 178.899 49.7549Z" fill="#28343E"/>
<path fill-rule="evenodd" clip-rule="evenodd" d="M125.34 47.779C125.344 47.8025 125.348 47.8274 125.352 47.854C126.898 47.5456 127.077 47.5943 127.158 48.3249C126.964 48.3845 126.763 48.4065 126.561 48.4285C126.323 48.4545 126.085 48.4806 125.856 48.5684C125.221 48.7957 124.961 49.234 125.075 49.8835C125.172 50.4355 125.644 50.7602 126.296 50.7277C126.548 50.7137 126.764 50.6034 127.006 50.4797C127.045 50.4598 127.085 50.4395 127.126 50.4192C127.288 50.6952 127.516 50.7764 127.874 50.5653C127.874 50.3297 127.88 50.0928 127.885 49.8549C127.898 49.2568 127.912 48.6529 127.842 48.0489C127.777 47.5618 127.516 47.2371 127.044 47.1559C126.475 47.0585 125.905 47.0423 125.4 47.2533C125.315 47.353 125.317 47.4527 125.318 47.5415C125.319 47.5539 125.319 47.5661 125.319 47.578C125.319 47.6402 125.329 47.7023 125.34 47.779ZM126.492 50.162C127.078 50.0321 127.224 49.7561 127.143 48.9281C126.785 48.8469 126.459 48.9443 126.166 49.0417C125.776 49.1392 125.629 49.4314 125.711 49.7723C125.792 50.0646 126.134 50.2432 126.492 50.162Z" fill="#28343E"/>
<path fill-rule="evenodd" clip-rule="evenodd" d="M143.989 47.8188C145.518 47.5428 145.616 47.5752 145.763 48.2896C145.552 48.3547 145.332 48.3812 145.111 48.4077C144.836 48.4407 144.559 48.4739 144.298 48.5818C143.777 48.8091 143.533 49.2799 143.63 49.8157C143.728 50.3515 144.135 50.6762 144.705 50.7086C145.061 50.7382 145.349 50.5925 145.644 50.4435C145.673 50.429 145.701 50.4145 145.73 50.4002C145.909 50.6924 146.137 50.7086 146.446 50.5625C146.446 50.3213 146.449 50.0801 146.451 49.8389C146.458 49.2358 146.465 48.6328 146.43 48.0298C146.397 47.4941 146.056 47.1856 145.518 47.1206C145.03 47.0557 144.542 47.0557 144.07 47.2181C144.035 47.2296 144 47.2577 143.96 47.2904C143.943 47.3037 143.926 47.3177 143.907 47.3317C143.907 47.3744 143.905 47.4171 143.904 47.4604C143.9 47.5488 143.896 47.6395 143.907 47.7376C143.907 47.7586 143.928 47.7728 143.951 47.7889C143.963 47.7978 143.977 47.8073 143.989 47.8188ZM145.788 49.58C145.806 49.3727 145.826 49.1504 145.745 48.8947C145.371 48.8623 145.029 48.9272 144.703 49.0246C144.378 49.1383 144.231 49.3818 144.313 49.739C144.394 50.0312 144.703 50.2098 145.045 50.1286C145.322 50.0799 145.582 49.95 145.778 49.7065C145.78 49.6649 145.784 49.6227 145.788 49.58Z" fill="#28343E"/>
<path fill-rule="evenodd" clip-rule="evenodd" d="M149.093 47.4361C149.085 47.5644 149.077 47.6949 149.179 47.8354C150.628 47.5431 150.904 47.6243 150.872 48.3224C150.805 48.3326 150.739 48.3445 150.671 48.3564C150.525 48.3823 150.377 48.4087 150.221 48.4198C149.96 48.4361 149.732 48.501 149.505 48.5822C148.935 48.8095 148.691 49.2641 148.805 49.8323C148.919 50.4168 149.309 50.709 149.928 50.7252C150.302 50.7252 150.595 50.5629 150.888 50.4005L150.888 50.4005C151.132 50.6603 151.132 50.6603 151.555 50.5791C151.61 50.4301 151.607 50.2585 151.605 50.0925C151.605 50.0596 151.604 50.0269 151.604 49.9947C151.604 49.8615 151.605 49.7284 151.605 49.5953C151.608 49.0628 151.611 48.5302 151.572 47.9977C151.539 47.5107 151.213 47.2184 150.693 47.1373C150.204 47.0723 149.716 47.0723 149.244 47.2347C149.212 47.2455 149.179 47.2707 149.146 47.296C149.13 47.3086 149.114 47.3213 149.098 47.3321C149.098 47.3667 149.095 47.4013 149.093 47.4361ZM150.963 49.4105C150.967 49.2402 150.972 49.0675 150.888 48.888C150.53 48.8718 150.204 48.9367 149.895 49.0341C149.569 49.1478 149.455 49.3751 149.504 49.6998C149.553 50.0569 149.846 50.1544 150.139 50.1381C150.464 50.1219 150.741 49.9595 150.969 49.6835C150.958 49.5927 150.96 49.502 150.963 49.4105Z" fill="#28343E"/>
<path fill-rule="evenodd" clip-rule="evenodd" d="M185.23 50.4215C185.311 50.2429 185.327 50.0805 185.23 49.8532C183.7 50.3728 183.065 50.1455 183.016 49.0252C183.353 48.9967 183.696 49.0027 184.038 49.0087C184.474 49.0163 184.908 49.0239 185.327 48.9603C185.409 48.5544 185.36 48.2459 185.246 47.9375C185.083 47.4991 184.79 47.2231 184.334 47.1257C183.423 46.9309 182.674 47.3692 182.398 48.2622C181.926 49.8045 182.967 50.9897 184.546 50.6812L184.546 50.6812C184.79 50.6325 185.034 50.5838 185.23 50.4215ZM183.035 48.4493C183.588 48.498 184.141 48.498 184.711 48.4493C184.613 47.7837 184.467 47.6213 183.946 47.6051C183.409 47.5888 183.149 47.8161 183.035 48.4493Z" fill="#28343E"/>
<path fill-rule="evenodd" clip-rule="evenodd" d="M160.947 50.4317C161.028 50.2206 161.028 50.0583 160.931 49.8797C159.319 50.318 158.815 50.1394 158.717 49.0517C159.1 48.9786 159.486 48.9908 159.873 49.003C160.259 49.0151 160.646 49.0273 161.028 48.9543C161.159 47.9639 160.768 47.282 160.019 47.1359C159.108 46.9573 158.375 47.3957 158.115 48.3048C157.985 48.7432 158.001 49.1815 158.115 49.6199C158.278 50.1881 158.652 50.5291 159.206 50.659C159.808 50.8051 160.41 50.7564 160.947 50.4317ZM159.85 48.4988C160.038 48.5014 160.225 48.5039 160.428 48.4365C160.281 47.7546 160.102 47.5923 159.565 47.6247C159.044 47.6572 158.833 47.8845 158.751 48.5015C158.843 48.5015 158.936 48.5032 159.03 48.505C159.22 48.5086 159.413 48.5123 159.598 48.5015C159.683 48.4965 159.766 48.4976 159.85 48.4988Z" fill="#28343E"/>
<path fill-rule="evenodd" clip-rule="evenodd" d="M120.473 47.1057C119.382 47.0083 118.715 47.7064 118.715 48.9078C118.715 49.9956 119.268 50.6612 120.18 50.7262C121.286 50.7749 121.954 50.028 121.872 48.7292C121.807 47.7226 121.303 47.1706 120.473 47.1057ZM119.381 48.8637V48.9449C119.365 49.1235 119.414 49.3183 119.479 49.5131C119.609 49.9353 119.934 50.1788 120.325 50.1626C120.716 50.1463 121.041 49.8703 121.139 49.4644C121.188 49.2696 121.204 49.0586 121.204 48.8637C121.204 48.1007 120.878 47.6461 120.309 47.6623C119.739 47.6786 119.397 48.1169 119.381 48.8637Z" fill="#28343E"/>
<path fill-rule="evenodd" clip-rule="evenodd" d="M135.251 50.5954C136.471 51.0987 137.529 50.2869 137.48 48.8258C137.475 48.7733 137.471 48.7146 137.467 48.6534C137.46 48.544 137.453 48.4265 137.432 48.3225C137.285 47.738 136.96 47.2834 136.341 47.1535C135.739 47.0236 135.169 47.1048 134.73 47.6081C134.16 48.2575 134.193 49.67 134.795 50.3032C134.925 50.433 135.088 50.5305 135.251 50.5954ZM135.931 50.1328C136.484 50.1165 136.793 49.6782 136.793 48.8989C136.793 48.0871 136.484 47.6326 135.898 47.6326C135.312 47.6326 134.987 48.0871 134.987 48.8989C134.987 49.6944 135.345 50.149 135.931 50.1328Z" fill="#28343E"/>
</g>
<defs>
<filter id="filter0_d_1001_134" x="0.675781" y="0" width="216.002" height="66.9199" filterUnits="userSpaceOnUse" color-interpolation-filters="sRGB">
<feFlood flood-opacity="0" result="BackgroundImageFix"/>
<feColorMatrix in="SourceAlpha" type="matrix" values="0 0 0 0 0 0 0 0 0 0 0 0 0 0 0 0 0 0 127 0" result="hardAlpha"/>
<feOffset dy="1"/>
<feGaussianBlur stdDeviation="6"/>
<feComposite in2="hardAlpha" operator="out"/>
<feColorMatrix type="matrix" values="0 0 0 0 0 0 0 0 0 0 0 0 0 0 0 0 0 0 0.1 0"/>
<feBlend mode="normal" in2="BackgroundImageFix" result="effect1_dropShadow_1001_134"/>
<feBlend mode="normal" in="SourceGraphic" in2="effect1_dropShadow_1001_134" result="shape"/>
</filter>
</defs>
</svg>
