<svg width="118" height="43" viewBox="0 0 118 43" fill="none" xmlns="http://www.w3.org/2000/svg">
<g clip-path="url(#clip0_202_107)">
<path d="M26.936 25.2743L24.8661 24.845L23.1854 25.471L20.9562 25.1133L20.6201 23.3785L19.1517 21.1786L18.0194 21.2144L17.4356 22.0907L16.3918 22.1086L15.2772 20.642L15.2596 19.8193L13.5434 20.0876C13.5434 20.0876 17.2764 17.4406 21.1685 15.044L18.6563 16.1529L19.2224 14.9545C20.5847 13.9351 24.2822 11.8246 26.9183 10.5906V8.92727L23.0085 8.71268L22.3539 10.0719L19.3109 9.48169L19.9301 7.22821L19.0102 5.69007L16.4979 6.85261L12.1989 7.15664L12.075 7.17453C15.6664 3.40078 20.5847 1.03995 25.8745 0.682248C15.8787 0.00261384 6.51985 6.53068 4.02533 16.5642C3.14074 20.1591 3.2292 23.7719 4.14917 27.0986C4.34378 27.814 6.73215 25.8824 6.64369 25.3995C6.11294 22.5557 6.16602 19.5689 6.90907 16.5642C7.0329 16.0456 7.19213 15.5627 7.35136 15.0618L8.05902 16.7431L10.3766 18.299L12.765 21.3753L12.8181 21.9119L17.4002 23.9866L19.187 24.3979L22.6016 27.5993L21.5577 28.5651L21.5223 29.6919L24.7068 34.2883L22.3716 41.9253C22.3539 41.9253 22.3539 41.9253 22.3362 41.9253C15.2596 40.1904 9.91662 35.0753 7.59902 28.7261C7.45749 28.3326 7.0152 27.0807 6.89137 26.0791C5.36989 27.7066 5.05144 29.3163 5.74141 31.0154C5.84757 31.2121 6.69677 32.7502 6.80291 32.947C9.61586 37.2752 14.0211 40.5839 19.4348 41.9253C20.3547 42.1578 21.2747 42.3188 22.1947 42.4082H22.2654C22.7608 42.4619 23.2561 42.4976 23.7515 42.5155L24.1054 42.5334L24.353 42.3009L32.1727 34.807L34.1011 32.5356V28.9049L26.936 25.2743Z" fill="#4D1119"/>
<path d="M66.0343 16.2059C65.7158 16.1165 65.415 15.9734 65.1143 15.7767C64.8312 15.58 64.5304 15.3295 64.2474 15.0076C63.9643 14.6857 63.6459 14.2922 63.3098 13.8093L60.2845 9.14127C60.8683 8.99819 61.3814 8.8015 61.8236 8.56895C62.3013 8.31858 62.7082 7.99664 63.0267 7.6568C63.3451 7.29913 63.5928 6.90566 63.7344 6.47641C63.8936 6.04717 63.9643 5.20657 63.9643 4.72368C63.9643 4.27655 63.8936 3.8473 63.7521 3.45383C63.6105 3.06036 63.4159 2.70266 63.1505 2.39861C62.9029 2.09457 62.6021 1.8084 62.2659 1.59378C61.9298 1.36128 61.5583 1.18243 61.1514 1.05723C60.7621 0.932034 60.2491 0.824721 59.6476 0.771068C59.046 0.717408 58.3207 0.681641 57.5069 0.681641H51.8809C51.8809 0.681641 51.9694 1.30762 52.5532 1.30762C53.2609 1.30762 53.6147 1.54012 53.7739 1.75475C53.9331 1.96937 54.0394 2.59535 54.0394 3.50749V14.2028C54.0394 15.2759 53.9331 15.6873 53.827 15.8482C53.5971 16.2238 53.1194 16.4027 52.5355 16.4205C51.9517 16.4205 51.8633 17.0644 51.8633 17.0644H58.5861C58.5861 17.0644 58.4976 16.4205 57.8961 16.4205C57.4361 16.4205 56.9408 16.2596 56.6753 15.9376C56.5338 15.8124 56.3747 15.4011 56.3747 14.2207V9.51689C56.4631 9.53479 56.5515 9.53479 56.6223 9.53479C56.8523 9.55268 57.0823 9.55268 57.3654 9.51689C57.5069 9.499 57.6484 9.499 57.843 9.499L62.9559 17.0286L62.9913 17.0644H67.2196C67.2373 17.0644 67.2373 16.5636 66.0343 16.2059ZM60.9745 6.60161C60.7975 6.99508 60.5322 7.33492 60.196 7.62108C59.8422 7.90724 59.3999 8.13971 58.8691 8.30069C58.3384 8.46166 57.6838 8.55106 56.9584 8.55106H56.4277V1.9336C56.7815 1.87994 57.0999 1.84417 57.3654 1.8084C57.6484 1.77264 57.8961 1.75475 58.0907 1.75475C58.5861 1.75475 59.0283 1.84417 59.4176 2.00514C59.8068 2.16611 60.143 2.38072 60.4083 2.649C60.6737 2.91728 60.886 3.25709 61.0452 3.63268C61.1867 4.02615 61.2752 4.4554 61.2752 4.92042C61.2221 5.42119 61.1514 6.20814 60.9745 6.60161Z" fill="#86888A"/>
<path d="M77.4457 1.30762C77.9767 1.30762 78.4014 1.46858 78.6662 1.75475C78.7725 1.86205 78.8432 2.07668 78.8788 2.34496C78.9317 2.649 78.9495 3.02459 78.9495 3.50749V10.6794C78.9495 10.894 78.9495 11.1444 78.9317 11.4127C78.9138 11.681 78.8967 11.9671 78.861 12.2533C78.8253 12.5394 78.7725 12.8256 78.684 13.1118C78.6134 13.3979 78.507 13.6484 78.3835 13.8987C78.2593 14.1491 78.1002 14.3459 77.9232 14.5247C77.7997 14.6499 77.6049 14.793 77.3929 14.954C77.1624 15.1149 76.8975 15.258 76.5964 15.4011C76.2959 15.5442 75.9597 15.6515 75.5707 15.7588C75.1989 15.8482 74.7742 15.9018 74.3317 15.9018C73.7129 15.9018 73.1641 15.8124 72.7223 15.6515C72.2798 15.4905 71.9258 15.258 71.6431 14.9898C71.3598 14.7214 71.1478 14.3995 70.9879 14.0239C70.8288 13.6663 70.7053 13.2906 70.6346 12.8972C70.564 12.5037 70.5105 12.1102 70.4926 11.7168C70.4755 11.3233 70.4755 10.9656 70.4755 10.6257V3.52537C70.4755 3.09613 70.4926 2.75632 70.5461 2.48804C70.599 2.21976 70.6518 2.02303 70.7403 1.87995C70.8645 1.68321 71.0058 1.54012 71.1478 1.4507C71.2891 1.36128 71.3955 1.3255 71.7844 1.3255C72.2798 1.3255 72.4746 0.699529 72.4746 0.699529H66.123C66.123 0.699529 66.2823 1.3255 66.8307 1.3255C67.503 1.3255 67.6446 1.59378 67.7684 1.73686C67.8922 1.87994 67.9807 2.09457 68.0338 2.38072C68.0869 2.68477 68.1222 3.06036 68.1222 3.54326V9.96402C68.1222 10.3754 68.1222 10.8225 68.1399 11.3233C68.1399 11.8419 68.193 12.3606 68.2991 12.8793C68.3876 13.3979 68.5645 13.9166 68.7947 14.4174C69.0245 14.9182 69.3785 15.3832 69.8203 15.7588C70.2628 16.1523 70.8645 16.4742 71.5718 16.7067C72.2798 16.9392 73.1641 17.0644 74.2082 17.0644C74.7742 17.0644 75.2874 17.0286 75.7299 16.9571C76.1717 16.8856 76.5785 16.7782 76.9504 16.6351C77.3222 16.492 77.6577 16.3133 77.9589 16.0986C78.2594 15.8839 78.5605 15.6157 78.8432 15.3295C79.1265 15.0434 79.3385 14.7036 79.5155 14.328C79.6925 13.9703 79.8338 13.5589 79.9402 13.1475C80.0465 12.7183 80.1172 12.2712 80.1528 11.7704C80.1878 11.2875 80.2057 10.7688 80.2057 10.2502V3.59691C80.2057 3.16767 80.2407 2.82786 80.2585 2.55958C80.3292 1.77264 80.878 1.30762 81.798 1.30762C82.2048 1.30762 82.3818 0.681641 82.3818 0.681641H76.7734C76.7555 0.699529 76.8975 1.30762 77.4457 1.30762Z" fill="#86888A"/>
<path d="M94.6584 3.04247C94.4992 2.7742 94.3044 2.5238 94.0917 2.2913C93.8797 2.07668 93.632 1.86206 93.3844 1.68321C93.1189 1.46858 92.8005 1.30762 92.4644 1.16454C92.1282 1.03935 91.7564 0.932034 91.3852 0.860494C91.0134 0.788955 90.6244 0.735302 90.2176 0.717415C89.8286 0.699529 89.4211 0.681641 89.0321 0.681641H83.3887C83.3887 0.681641 83.3887 1.27185 84.0432 1.30762C84.2908 1.3255 84.5742 1.34339 84.7683 1.43282C84.9631 1.50436 85.1401 1.62955 85.2636 1.75475C85.4406 2.00514 85.5291 2.59535 85.5291 3.50749V14.2028C85.5291 14.6499 85.5113 15.0076 85.4585 15.2759C85.4228 15.5442 85.37 15.723 85.3171 15.8303C85.193 16.0271 85.016 16.1702 84.8218 16.2596C84.6091 16.349 84.5206 16.4027 84.0432 16.4027C83.5657 16.4027 83.3887 17.0465 83.3887 17.0465H90.0934C90.0934 17.0465 89.9521 16.4027 89.4211 16.4027C88.8729 16.4027 88.4661 16.2417 88.2006 15.9197C88.0943 15.8303 88.0236 15.6515 87.9708 15.3653C87.9351 15.0613 87.9001 14.6678 87.9001 14.2028V9.67787L88.5011 9.73148C88.6959 9.74937 88.8551 9.76727 88.9793 9.76727C89.1206 9.76727 89.2448 9.76727 89.3504 9.76727H89.8286C90.8014 9.76727 91.6151 9.65997 92.2874 9.44532C92.9775 9.21284 93.5435 8.90879 93.9682 8.51534C94.3929 8.12182 94.7112 7.63897 94.8882 7.12027C95.0652 6.58373 95.1708 5.6537 95.1708 5.04561C95.1708 4.63425 95.118 4.25867 95.0295 3.93674C94.9588 3.6148 94.8175 3.31075 94.6584 3.04247ZM92.4116 5.296C92.4116 5.7789 92.3231 6.58373 92.181 6.97719C92.0397 7.37064 91.8277 7.71048 91.5801 7.97874C91.3324 8.24701 91.0312 8.46166 90.6951 8.62263C90.3589 8.76571 90.0049 8.85511 89.6338 8.85511C89.4211 8.85511 89.1563 8.85511 88.8551 8.83722C88.5724 8.81939 88.2534 8.78361 87.9001 8.72992V2.00514C88.1649 1.95149 88.4304 1.89783 88.6431 1.86206C88.8908 1.82629 89.1028 1.8084 89.2619 1.8084C89.7929 1.8084 90.2526 1.89783 90.6422 2.09457C91.0312 2.2913 91.3674 2.5417 91.6329 2.86363C91.8984 3.18556 92.0925 3.56114 92.2167 3.9725C92.358 4.38386 92.4287 4.83098 92.4116 5.296Z" fill="#86888A"/>
<path d="M111.606 6.56584C111.429 5.86832 111.182 5.20657 110.863 4.61636C110.545 4.02615 110.155 3.47172 109.714 2.98882C109.271 2.50592 108.758 2.09457 108.228 1.75475C107.679 1.41493 107.095 1.14665 106.476 0.967807C105.857 0.788955 105.202 0.681641 104.53 0.681641C103.433 0.681641 102.407 0.896261 101.469 1.28974C100.532 1.7011 99.7001 2.27342 99.01 2.98882C98.3198 3.70422 97.7716 4.58059 97.3827 5.56427C96.993 6.54795 96.7988 7.63897 96.7988 8.8015C96.7988 10.0176 96.993 11.1444 97.3827 12.1639C97.7716 13.1654 98.3198 14.0418 98.9921 14.7572C99.6644 15.4726 100.479 16.0449 101.381 16.4384C102.283 16.8319 103.274 17.0286 104.317 17.0286C105.025 17.0286 105.733 16.9392 106.37 16.7425C107.024 16.5636 107.626 16.2775 108.192 15.9197C108.758 15.5621 109.271 15.1328 109.714 14.6499C110.173 14.1491 110.563 13.5947 110.881 12.9866C111.2 12.3785 111.447 11.6989 111.624 11.0014C111.801 10.286 111.89 9.53479 111.89 8.74782C111.872 8.01453 111.783 7.26335 111.606 6.56584ZM104.247 1.71898C105.078 1.71898 105.804 1.89783 106.405 2.21976C107.007 2.54169 107.52 3.02459 107.926 3.65057C108.333 4.27655 108.634 5.04561 108.846 5.95775C109.041 6.86988 109.148 7.92513 109.13 9.08766C109.13 10.286 108.988 11.3411 108.758 12.2175C108.51 13.0939 108.174 13.8093 107.749 14.3816C107.325 14.954 106.812 15.3653 106.229 15.6336C105.645 15.9018 104.972 16.0449 104.282 16.0449C103.521 16.0449 102.831 15.8482 102.247 15.5084C101.664 15.1507 101.168 14.6678 100.779 14.0239C100.39 13.3801 100.071 12.611 99.8771 11.7347C99.6644 10.8404 99.5588 9.83884 99.5588 8.76571C99.5588 7.67469 99.6644 6.67315 99.8771 5.79678C100.089 4.92041 100.39 4.18712 100.797 3.57903C101.204 2.97093 101.699 2.50592 102.265 2.18399C102.831 1.87994 103.504 1.71898 104.247 1.71898Z" fill="#86888A"/>
<path d="M31.837 32.5528L27.0957 30.8358V29.1367L31.6425 29.566L31.837 32.5528Z" fill="#6C0C16"/>
<path d="M8.09375 16.7253L11.3667 14.293L10.4114 18.2814L8.09375 16.7253Z" fill="#BF2026"/>
<path d="M7.2793 14.8295L11.3661 14.293L8.09315 16.7253L7.2793 14.8295Z" fill="#911A1D"/>
<path d="M16.5149 6.85254L13.4366 12.6831L12.0566 7.1745L16.5149 6.85254Z" fill="#911A1D"/>
<path d="M19.0268 5.67188L17.5938 8.56924L19.9645 7.21002L19.0268 5.67188Z" fill="#BF2026"/>
<path d="M19.3275 9.46448L17.5938 8.57022L19.9645 7.21094L19.3275 9.46448Z" fill="#6C0C16"/>
<path d="M17.5948 8.56924L19.0278 5.67188L16.5156 6.85229L17.5948 8.56924Z" fill="#6C0C16"/>
<path d="M19.3289 9.46457L13.4375 12.6839L17.5951 8.57031L19.3289 9.46457Z" fill="#911A1D"/>
<path d="M16.5159 6.85254L17.5951 8.5695L13.4375 12.6831L16.5159 6.85254Z" fill="#BF2026"/>
<path d="M19.3306 9.46484L18.6406 13.8288L22.3736 10.0551L19.3306 9.46484Z" fill="#6C0C16"/>
<path d="M13.4375 12.6842L18.6389 13.8288L19.3289 9.46484L13.4375 12.6842Z" fill="#4D1119"/>
<path d="M20.178 15.5085L13.8445 19.8187L13.4375 12.6826L18.6389 13.8272L20.178 15.5085Z" fill="#BF2026"/>
<path d="M12.252 20.6415L13.8443 19.8187L13.4374 12.6826L11.3674 14.2923L10.4121 18.2807L12.252 20.6415Z" fill="#4D1119"/>
<path d="M17.435 23.9689L16.3912 22.1089L12.959 21.9658L17.435 23.9689Z" fill="#BF2026"/>
<path d="M15.2766 20.6426L16.3912 22.1092L12.959 21.9661L15.2766 20.6426Z" fill="#6C0C16"/>
<path d="M17.4344 22.0908L16.3906 22.1087L17.4344 23.9687V22.0908Z" fill="#6C0C16"/>
<path d="M18.0194 21.2148L19.2224 24.3805L17.4355 23.9691V22.0912L18.0194 21.2148Z" fill="#911A1D"/>
<path d="M19.1518 21.1787L19.2226 24.3801L18.0195 21.2145L19.1518 21.1787Z" fill="#6C0C16"/>
<path d="M17.4355 23.969L18.5855 22.6992L19.2224 24.3804L17.4355 23.969Z" fill="#BF2026"/>
<path d="M18.5857 22.699L19.1518 21.1787L18.0195 21.2145L18.5857 22.699Z" fill="#BF2026"/>
<path d="M19.1523 21.1787L20.6208 23.3786L19.2231 24.3801L19.1523 21.1787Z" fill="#911A1D"/>
<path d="M20.6183 23.3779L20.9368 25.1128L19.2207 24.3795L20.6183 23.3779Z" fill="#4D1119"/>
<path d="M22.6352 27.5823L20.9368 25.1141L19.2207 24.3809L22.6352 27.5823Z" fill="#BF2026"/>
<path d="M23.1863 25.4709L22.6378 27.5814L20.9395 25.1133L23.1863 25.4709Z" fill="#911A1D"/>
<path d="M24.8662 24.8623L24.9547 27.1159L23.1855 25.4704L24.8662 24.8623Z" fill="#6C0C16"/>
<path d="M26.9371 25.2736L27.3794 28.4394L24.9556 27.1159L24.8672 24.8623L26.9371 25.2736Z" fill="#4D1119"/>
<path d="M22.6367 27.5811L24.9543 27.1161L23.1851 25.4707L22.6367 27.5811Z" fill="#BF2026"/>
<path d="M21.6113 28.547L23.9289 29.2087L24.9551 27.1162L22.6374 27.5812L21.6113 28.547Z" fill="#6C0C16"/>
<path d="M21.5742 29.6737L23.9272 29.2087L21.6096 28.5469L21.5742 29.6737Z" fill="#BF2026"/>
<path d="M24.9538 27.1162L27.3776 28.4397L23.9277 29.2087L24.9538 27.1162Z" fill="#911A1D"/>
<path d="M27.3798 28.4391L34.1203 28.9041L26.9375 25.2734L27.3798 28.4391Z" fill="#911A1D"/>
<path d="M24.7587 34.27L27.3771 28.4395L21.5742 29.6735L24.7587 34.27Z" fill="#4D1119"/>
<path d="M32.1902 34.8068L28.4219 31.981L29.2888 30.2998L34.1186 32.5355L32.1902 34.8068Z" fill="#BF2026"/>
<path d="M24.7598 34.27L28.4219 31.9806L29.2888 30.2995V28.6361L27.3781 28.4395L24.7598 34.27Z" fill="#6C0C16"/>
<path d="M28.4219 31.9814L25.2552 38.5274L24.7598 34.2708L28.4219 31.9814Z" fill="#BF2026"/>
<path d="M24.3535 42.3005L32.191 34.8066L25.2558 38.5268L24.3535 42.3005Z" fill="#BF2026"/>
<path d="M28.4219 31.9814L28.7049 36.6852L32.1902 34.8073L28.4219 31.9814Z" fill="#911A1D"/>
<path d="M27.377 28.4395L29.2877 30.2995V28.6361L27.377 28.4395Z" fill="#4D1119"/>
<path d="M28.4219 31.981L25.839 31.8379L24.7598 34.2703L28.4219 31.981Z" fill="#911A1D"/>
<path d="M10.4121 18.2807L13.6673 16.671L13.4374 12.6826L11.3674 14.2923L10.4121 18.2807Z" fill="#911A1D"/>
<path d="M18.6389 13.8272L13.6675 16.671L13.4375 12.6826L18.6389 13.8272Z" fill="#6C0C16"/>
<path d="M50.7651 34.4676C50.5528 34.4497 50.3582 34.2887 50.1813 34.1277C50.0044 33.9668 49.8097 33.7164 49.6506 33.4123C49.4736 33.0905 49.279 32.6612 49.049 32.1246L43.6531 18.9612L43.6354 18.8896H43.087L37.5672 31.9994C37.3902 32.4108 37.2133 32.7864 37.0541 33.1083C36.8948 33.4302 36.718 33.6985 36.541 33.8953C36.3641 34.1099 36.1518 34.253 35.9218 34.3782C35.7803 34.4497 35.6565 34.4676 35.4618 34.5213C35.0195 34.6464 35.0195 35.2188 35.0195 35.2188H40.044C40.044 35.2188 40.0263 34.6286 39.2832 34.4855C39.0709 34.4497 38.9117 34.3961 38.7702 34.3424C38.5402 34.253 38.381 34.1099 38.3102 33.9489C38.2394 33.788 38.2394 33.5733 38.3102 33.3408C38.381 33.0726 38.4871 32.7685 38.6286 32.4287L39.7963 29.7102H45.5638L46.5545 32.1962C46.6783 32.5181 46.8022 32.8221 46.8907 33.1083C46.9791 33.3945 47.0145 33.6449 46.9791 33.8595C46.9437 34.0741 46.8376 34.2351 46.6252 34.3603C46.5191 34.4318 46.3953 34.4855 46.2184 34.5213C45.493 34.6643 45.4399 35.2188 45.4399 35.2188H51.632C51.6497 35.2367 51.7027 34.5928 50.7651 34.4676ZM45.1568 28.6907H40.2386L42.7331 22.8065L45.1568 28.6907Z" fill="#B12028"/>
<path d="M65.1483 31.1586C65.1483 31.1586 64.6353 30.926 64.1753 31.4984C63.8746 31.8561 63.6092 32.1959 63.3438 32.4642C62.9546 32.8755 62.5477 33.1974 62.1585 33.4299C61.7692 33.6625 61.3623 33.8234 60.9377 33.9128C60.5131 34.0022 60.0531 34.0559 59.5754 34.0559C58.7263 34.0559 57.9656 33.9128 57.2755 33.6267C56.5856 33.3405 56.0018 32.9113 55.5064 32.339C55.011 31.7667 54.6395 31.0691 54.3564 30.2285C54.0911 29.3879 53.9495 28.4221 53.9495 27.3311C53.9495 26.0612 54.0911 24.9345 54.3564 24.0224C54.6219 23.0924 54.9933 22.3233 55.4533 21.7152C55.9133 21.1071 56.4795 20.66 57.1163 20.3559C57.7532 20.0698 58.4786 19.9088 59.2394 19.9088C59.8232 19.9088 60.3716 19.9982 60.867 20.1592C61.3623 20.3202 61.84 20.5706 62.2469 20.9282C62.6715 21.2681 63.0431 21.7331 63.3792 22.2875C63.4854 22.4664 63.6269 22.7704 63.7507 23.0924C64.2814 24.4516 64.7768 24.3801 64.7768 24.3801L64.4053 18.9251C64.4053 18.9251 63.91 18.8178 63.6445 19.4795C63.5915 19.6047 63.5207 19.6942 63.45 19.7657C63.3084 19.9267 63.1492 19.9982 62.9723 19.9982C62.9015 19.9982 62.7776 19.9625 62.53 19.8373C62.3177 19.73 62.0523 19.5869 61.7339 19.4616C61.4154 19.3186 61.0262 19.1934 60.5839 19.0861C60.1416 18.9788 59.6285 18.9072 59.0447 18.9072C57.8594 18.9072 56.7802 19.1398 55.8071 19.5869C54.8341 20.034 54.0026 20.6421 53.3127 21.4111C52.6226 22.1802 52.0919 23.0745 51.7204 24.0939C51.3489 25.1134 51.1543 26.1865 51.1543 27.3311C51.1543 28.0286 51.225 28.7261 51.3843 29.3879C51.5435 30.0496 51.7558 30.6935 52.0565 31.2837C52.3573 31.8739 52.7111 32.4105 53.1357 32.9113C53.5603 33.3942 54.0557 33.8234 54.6218 34.1811C55.1703 34.5209 55.8071 34.8071 56.4795 35.0039C57.1517 35.2005 57.8948 35.29 58.6732 35.29C59.3986 35.29 60.0708 35.2006 60.6901 35.0396C61.3093 34.8786 61.8754 34.6282 62.4061 34.2884C62.9192 33.9486 63.4146 33.5373 63.8569 33.0365C64.2992 32.5357 64.706 31.9455 65.0776 31.2658L65.1483 31.1586Z" fill="#B12028"/>
<path d="M117.18 29.0309C116.88 28.4585 116.473 27.9756 115.942 27.5822C115.677 27.3675 115.305 27.135 114.809 26.8131C114.332 26.509 113.73 26.1693 113.005 25.7758C112.262 25.3644 111.643 25.0067 111.147 24.7027C110.67 24.3986 110.281 24.1125 109.997 23.8441C109.732 23.5938 109.538 23.3255 109.431 23.093C109.325 22.8605 109.272 22.5922 109.272 22.3061C109.272 22.002 109.343 21.7159 109.467 21.4476C109.608 21.1793 109.785 20.9289 110.015 20.7143C110.245 20.4997 110.528 20.3387 110.829 20.2135C111.147 20.0883 111.483 20.0346 111.837 20.0346C112.368 20.0346 112.864 20.1241 113.323 20.3208C113.784 20.4997 114.208 20.7858 114.58 21.1435C114.951 21.5012 115.252 21.9662 115.5 22.5028C115.642 22.8247 115.747 23.2003 115.854 23.5938C116.083 24.5596 116.597 24.488 116.597 24.488V18.9258C116.597 18.9258 116.066 18.9258 115.836 19.4444C115.801 19.5339 115.747 19.5875 115.712 19.6412C115.517 19.8558 115.217 19.8379 114.809 19.677C114.58 19.5875 114.332 19.4981 114.049 19.3729C113.766 19.2656 113.43 19.1583 113.058 19.0689C112.687 18.9795 112.28 18.9258 111.82 18.9258C111.13 18.9258 110.493 19.0331 109.945 19.2656C109.396 19.4981 108.9 19.8022 108.511 20.1777C108.122 20.5533 107.804 21.0005 107.609 21.5012C107.397 22.002 107.291 22.5385 107.291 23.093C107.291 23.5759 107.362 24.023 107.468 24.4165C107.592 24.81 107.821 25.2034 108.157 25.5969C108.494 25.9725 108.954 26.3839 109.538 26.7773C110.122 27.1887 110.865 27.6537 111.767 28.1724C112.439 28.5479 113.005 28.8878 113.465 29.1739C113.925 29.4601 114.297 29.7462 114.597 29.9966C114.881 30.2471 115.075 30.5332 115.199 30.8015C115.323 31.0697 115.393 31.3917 115.393 31.7672C115.393 32.0892 115.323 32.4111 115.181 32.6973C115.04 32.9835 114.845 33.2517 114.597 33.4664C114.35 33.681 114.031 33.8598 113.677 34.0029C113.306 34.1281 112.899 34.1997 112.457 34.1997C111.926 34.1997 111.413 34.1281 110.917 33.9671C110.422 33.8062 109.98 33.5558 109.591 33.216C109.202 32.8762 108.848 32.429 108.582 31.8746C108.441 31.5885 108.317 31.2665 108.228 30.9088C107.91 29.6926 107.414 29.782 107.414 29.782V35.2906C107.414 35.2906 107.945 35.2906 108.087 34.8972C108.14 34.7541 108.175 34.6289 108.246 34.5573C108.441 34.3248 108.759 34.3606 109.219 34.5216C109.467 34.611 109.768 34.7183 110.104 34.8257C110.44 34.9329 110.829 35.0402 111.254 35.1297C111.678 35.2191 112.174 35.2728 112.687 35.2728C113.394 35.2728 114.066 35.1475 114.668 34.9329C115.27 34.7004 115.783 34.3785 116.225 33.985C116.667 33.5916 117.003 33.1086 117.251 32.5721C117.499 32.0356 117.623 31.4633 117.623 30.8731C117.623 30.2113 117.481 29.6032 117.18 29.0309Z" fill="#B12028"/>
<path d="M78.3645 31.1586C78.3645 31.1586 77.7985 30.9976 77.0199 32.3211C76.8429 32.643 76.6309 32.8934 76.4539 33.108C76.2769 33.3226 76.082 33.5015 75.8879 33.6446C75.6931 33.7877 75.4811 33.8949 75.2506 33.9844C75.0029 34.0738 74.7202 34.1275 74.4191 34.1632C74.1186 34.199 73.7467 34.2169 73.3399 34.2169H70.7748C70.4386 34.2169 70.1731 34.1811 70.014 34.0917C69.8548 34.0201 69.7485 33.9128 69.6956 33.7698C69.625 33.6267 69.6071 33.4657 69.6071 33.269V27.2596H72.8624C73.3578 27.2596 73.7646 27.2953 74.0479 27.3848C74.3134 27.4742 74.5254 27.5994 74.6667 27.7604C74.8087 27.9392 74.9857 28.1538 74.9857 28.4221C75.0029 29.531 75.7994 29.531 75.7994 29.531V23.9687C75.7994 23.9687 75.0029 24.0581 75.0029 25.0418C75.0029 25.3101 74.8437 25.5247 74.7024 25.6857C74.5611 25.8467 74.3484 25.9719 74.0657 26.0434C73.7824 26.1149 73.3756 26.1686 72.8803 26.1686H69.625V19.9267H73.7467C74.1892 19.9267 74.5611 19.9625 74.8616 20.0161C75.1449 20.0698 75.3926 20.1592 75.5867 20.2665C75.7637 20.3738 75.9229 20.499 76.0114 20.6421C76.1177 20.7851 76.2062 20.9461 76.2769 21.1429C76.3475 21.3217 76.3832 21.5363 76.436 21.7331C76.6487 22.4843 77.2325 22.4664 77.2325 22.4664L77.0377 18.9072H69.2003H68.5103H65.0958C65.0958 18.9072 65.1843 19.5332 65.7681 19.5332C66.4757 19.5332 66.8296 19.7657 66.9888 19.9804C67.1481 20.1949 67.2542 20.8209 67.2542 21.7331V32.4105C67.2542 33.4836 67.1481 33.8949 67.0419 34.0559C66.8119 34.4315 66.3342 34.6103 65.7504 34.6282C65.1666 34.6282 65.0781 35.2721 65.0781 35.2721H69.1825V35.2542H76.9849L78.3645 31.1586Z" fill="#B12028"/>
<path d="M106.742 31.1589C106.742 31.1589 106.105 31.141 105.397 32.3214C105.202 32.6254 105.008 32.8937 104.831 33.1083C104.636 33.3229 104.459 33.5018 104.265 33.6449C104.07 33.788 103.858 33.8953 103.628 33.9847C103.38 34.0741 103.115 34.1278 102.796 34.1635C102.478 34.1993 102.124 34.2172 101.717 34.2172H99.1521C98.816 34.2172 98.5505 34.1814 98.3913 34.092C98.2322 34.0204 98.1258 33.9132 98.0551 33.7701C97.9845 33.627 97.9666 33.466 97.9666 33.2693V27.2599H101.222C101.717 27.2599 102.124 27.2957 102.407 27.3851C102.672 27.4745 102.885 27.5997 103.026 27.7607C103.168 27.9396 103.345 28.1541 103.345 28.4224C103.362 29.5313 104.159 29.5313 104.159 29.5313V23.9691C104.159 23.9691 103.362 24.0585 103.362 25.0421C103.362 25.3105 103.203 25.525 103.062 25.686C102.92 25.847 102.708 25.9722 102.425 26.0437C102.142 26.1152 101.735 26.1689 101.24 26.1689H97.9845V19.927H102.106C102.549 19.927 102.92 19.9628 103.221 20.0165C103.504 20.0701 103.751 20.1595 103.946 20.2668C104.123 20.3741 104.282 20.4993 104.389 20.6424C104.494 20.7855 104.583 20.9464 104.654 21.1432C104.725 21.3221 104.76 21.5366 104.813 21.7334C105.025 22.4846 105.609 22.4667 105.609 22.4667L105.414 18.9075H97.577H96.8518H96.268H94.0212H93.4374H93.4024H89.1386C89.1386 18.9075 89.0323 19.4978 89.8816 19.6766C90.0586 19.7124 90.1821 19.7839 90.2884 19.8376C90.3948 19.8912 90.4654 19.9449 90.5182 19.9986C90.5711 20.0522 90.6067 20.1059 90.6424 20.1774C90.7481 20.3562 90.7659 20.6067 90.6774 20.9285C90.5889 21.2684 90.4297 21.7334 90.2178 22.2878L86.7148 31.3913L82.9107 22.1984C82.663 21.6261 82.5039 21.1432 82.4332 20.7855C82.3804 20.4636 82.3975 20.1953 82.5217 20.0165C82.6102 19.8734 82.7515 19.766 82.9813 19.6945C83.0877 19.6587 83.2468 19.6229 83.406 19.5872C84.0783 19.4441 84.0962 18.8896 84.0962 18.8896H77.6562C77.6562 18.8896 77.6562 19.4441 78.2229 19.5693C78.3642 19.605 78.4877 19.6229 78.5941 19.6587C78.8067 19.7303 78.9831 19.8197 79.1429 19.9628C79.2136 20.0165 79.2664 20.0701 79.3371 20.1237C79.3906 20.1595 79.4434 20.231 79.5141 20.3383C79.5847 20.4278 79.6732 20.5709 79.7617 20.7497C79.8502 20.9285 79.9744 21.1969 80.1157 21.5188L85.7948 35.2188L85.8298 35.2724H86.3965L91.7216 21.6797C92.0399 20.9285 92.3939 20.3562 92.765 19.9986C92.8892 19.8734 93.0484 19.766 93.2254 19.6945C93.4195 19.6229 93.65 19.5514 93.8977 19.5156H94.039C94.1625 19.5156 94.2689 19.5335 94.3752 19.5335C94.8527 19.5872 95.1182 19.7839 95.2595 19.9628C95.4187 20.1774 95.525 20.8034 95.525 21.7155V32.3929C95.525 33.466 95.4187 33.8774 95.313 34.0383C95.0825 34.414 94.605 34.5928 94.039 34.6107C93.4552 34.6107 93.3667 35.2545 93.3667 35.2545H93.4024H96.233H97.5063V35.2367H105.344L106.476 31.91L106.742 31.1589Z" fill="#B12028"/>
<path d="M26.9372 10.5908V8.92754L23.0273 8.71289L25.9464 11.0737C26.2826 10.8949 26.6187 10.7339 26.9372 10.5908Z" fill="#4D1119"/>
<path d="M25.9448 11.0737L23.0257 8.71289L22.3711 10.0722L25.4849 11.3062C25.6441 11.2168 25.7856 11.1452 25.9448 11.0737Z" fill="#6C0C16"/>
<path d="M25.4834 11.2878L22.3696 10.0537L18.6367 13.8274L19.4859 14.7575C20.7421 13.8811 23.2542 12.4324 25.4834 11.2878Z" fill="#911A1D"/>
<path d="M20.1602 15.4907L20.1779 15.5086L20.4609 15.3477L20.1602 15.4907Z" fill="#911A1D"/>
<path d="M46.3082 7.69269C44.716 7.69269 42.9999 7.79998 41.213 8.01464C40.0985 8.13982 38.9308 8.31869 37.7455 8.55117C37.7632 7.60329 37.887 6.69112 38.117 5.86841C38.3647 5.02781 38.7185 4.29452 39.1785 3.66854C39.6385 3.06045 40.2223 2.55966 40.9122 2.21985C41.6022 1.88003 42.3984 1.70118 43.283 1.70118C43.8314 1.70118 44.3621 1.77272 44.8398 1.9158C45.3175 2.05889 45.7775 2.29139 46.2021 2.61332C46.609 2.93525 46.9982 3.34661 47.3166 3.8474C47.5643 4.22298 47.7766 4.65222 47.9713 5.13512C48.2366 5.79687 48.7496 5.77898 48.7496 5.77898L48.3782 0.699615C48.3782 0.699615 47.7943 0.663845 47.6705 1.27194C47.6528 1.39713 47.582 1.48656 47.5467 1.54022C47.5113 1.59387 47.4582 1.64752 47.4228 1.66541C47.3874 1.6833 47.352 1.70118 47.3166 1.70118C47.1928 1.70118 47.0159 1.64753 46.8213 1.5581C46.5913 1.45079 46.3082 1.34348 45.972 1.21829C45.636 1.09309 45.2114 0.967894 44.7514 0.878467C44.2737 0.771155 43.7075 0.717502 43.0883 0.717502C42.2214 0.717502 41.4076 0.842694 40.6646 1.07521C39.9215 1.30771 39.2493 1.64753 38.6477 2.041C38.0462 2.45236 37.5155 2.93525 37.0732 3.48969C36.6309 4.04413 36.2416 4.63434 35.9409 5.24243C35.6402 5.86841 35.4102 6.51227 35.2509 7.17406C35.0917 7.83577 35.021 8.49756 35.021 9.12348V9.14138C30.085 10.3218 24.8837 12.1997 20.0538 14.5784C16.2324 16.4564 12.6764 18.5847 9.49187 20.9098C6.23664 23.3064 3.72442 25.6494 2.04372 27.8671C0.98222 29.28 0.380702 30.4246 0.115328 31.5515C-0.0438972 32.2668 -0.0438964 32.9286 0.150711 33.483C0.380703 34.1806 0.876068 34.6098 1.15914 34.8065C1.93757 35.3073 2.59216 35.3788 3.03445 35.4146H3.06983C3.12291 35.4146 3.17598 35.4146 3.22906 35.4146C3.65366 35.4146 3.81288 35.361 3.83058 35.2179C3.84827 35.0748 3.68904 34.9675 3.19368 34.7708L3.03445 34.6992C2.68062 34.5382 2.20294 34.3236 1.77834 33.948C1.26528 33.4651 1.14144 32.7497 1.4422 31.9091C1.72527 31.0685 2.34447 30.1027 3.33521 28.9581C5.01591 27.0265 7.51043 24.9161 10.7126 22.6983C13.8441 20.5342 17.3293 18.5132 21.0445 16.7068C27.4666 13.5411 33.2341 11.699 37.374 10.6437C36.3478 11.2876 35.8347 12.0209 35.8524 12.8257L35.8702 12.8794C36.2239 13.5769 36.6839 14.2208 37.2501 14.7573C37.9754 15.4727 38.86 16.045 39.9038 16.4385C40.9476 16.8499 42.133 17.0466 43.4422 17.0466C44.3975 17.0466 45.3175 16.9393 46.2021 16.7246C47.0867 16.5101 47.9536 16.1523 48.785 15.6516L48.8381 15.6158V10.8405C48.8381 10.4291 48.8558 10.0893 48.8912 9.80316C48.9266 9.53483 48.9797 9.33814 49.0504 9.21295C49.1389 9.03408 49.2804 8.89101 49.4573 8.80154C49.6342 8.71214 49.8643 8.65846 50.1473 8.65846H50.5011V8.05042H50.3596C49.9881 7.88945 48.4135 7.69269 46.3082 7.69269ZM44.2914 9.24867C44.4329 9.23084 44.5744 9.23084 44.6983 9.23084C45.3352 9.23084 46.4143 9.40964 46.4497 10.6616V10.7152C46.4497 10.7689 46.4497 10.8226 46.4497 10.8762V15.2759C45.972 15.5621 45.4944 15.7768 44.999 15.9019C43.9552 16.1523 42.8407 16.1702 41.8853 15.8483C41.3899 15.6874 40.9299 15.4548 40.5231 15.1329C40.0985 14.8288 39.7092 14.4533 39.3731 14.0061C39.0192 13.559 38.7362 13.0582 38.4885 12.5038C38.2409 11.9493 38.0639 11.3412 37.9224 10.6974C37.9224 10.6616 37.9047 10.6258 37.9047 10.5722L37.887 10.5186C39.3023 10.1787 40.4877 9.92835 41.443 9.74948C42.3984 9.55272 43.3537 9.39175 44.2914 9.24867Z" fill="#86888A"/>
<path d="M38.5945 42.5156H35.127V42.3904C35.2155 42.3904 35.3039 42.3903 35.3923 42.3725C35.4808 42.3546 35.5338 42.3367 35.6046 42.3009C35.6577 42.2651 35.7108 42.2115 35.7462 42.1399C35.7816 42.0684 35.7993 41.9611 35.7993 41.8359V38.706C35.7993 38.5808 35.7816 38.4735 35.7462 38.402C35.7108 38.3304 35.6754 38.2767 35.6046 38.241C35.5515 38.2052 35.4808 38.1694 35.3923 38.1694C35.3039 38.1516 35.2155 38.1516 35.127 38.1516V38.0264H37.0554V38.1516C36.9492 38.1516 36.8607 38.1516 36.79 38.1694C36.7015 38.1873 36.6485 38.2052 36.5777 38.241C36.5246 38.2767 36.4715 38.3304 36.4361 38.4199C36.4007 38.4914 36.3831 38.5987 36.3831 38.7239V41.6928C36.3831 41.818 36.4007 41.9254 36.4184 41.9969C36.4361 42.0684 36.4715 42.122 36.5246 42.1578C36.5777 42.1936 36.6308 42.2115 36.7015 42.2294C36.7723 42.2473 36.8607 42.2472 36.9492 42.2472H37.3915C37.5331 42.2472 37.6392 42.2472 37.7453 42.2472C37.8514 42.2472 37.9222 42.2294 37.993 42.2115C38.0638 42.1936 38.1346 42.1757 38.1876 42.1578C38.2407 42.1399 38.2937 42.1042 38.3468 42.0505C38.3999 41.9969 38.453 41.9611 38.4884 41.9075C38.5238 41.8538 38.5768 41.8002 38.6122 41.7465C38.6476 41.6928 38.683 41.6213 38.7183 41.5497C38.7537 41.4782 38.7891 41.3888 38.8422 41.2815L38.9661 41.2994L38.5945 42.5156Z" fill="#AFB1B3"/>
<path d="M44.487 40.244C44.487 40.4765 44.4693 40.6911 44.4163 40.8879C44.3632 41.1025 44.2924 41.2813 44.204 41.4602C44.1155 41.6391 43.9916 41.8 43.8678 41.9431C43.744 42.0862 43.5847 42.2114 43.4255 42.3187C43.2663 42.426 43.0894 42.4975 42.8948 42.5512C42.7002 42.6048 42.5056 42.6406 42.2933 42.6406C41.9925 42.6406 41.7094 42.5869 41.4441 42.4618C41.1787 42.3545 40.9487 42.1935 40.7541 41.9789C40.5595 41.7643 40.4002 41.5139 40.2941 41.2277C40.188 40.9416 40.1172 40.6196 40.1172 40.2619C40.1172 39.9221 40.1703 39.6181 40.2941 39.3319C40.4002 39.0458 40.5595 38.7953 40.7718 38.5807C40.9664 38.3661 41.2141 38.2051 41.4795 38.0978C41.7448 37.9726 42.0456 37.9189 42.3641 37.9189C42.5586 37.9189 42.7533 37.9368 42.9302 37.9905C43.1071 38.0441 43.284 38.1157 43.4432 38.223C43.6024 38.3125 43.744 38.4376 43.8678 38.5807C43.9916 38.7238 44.1155 38.8848 44.204 39.0458C44.2924 39.2245 44.3632 39.4034 44.4163 39.6002C44.4516 39.7969 44.487 40.0115 44.487 40.244ZM43.744 40.3335C43.744 39.9936 43.7263 39.6896 43.6555 39.4213C43.6024 39.153 43.514 38.9205 43.3902 38.7417C43.2663 38.5628 43.1247 38.4198 42.9302 38.3125C42.7533 38.2051 42.5233 38.1694 42.2756 38.1694C42.0456 38.1694 41.851 38.223 41.674 38.3125C41.4972 38.4019 41.3556 38.5449 41.2317 38.7238C41.1079 38.9027 41.0195 39.1173 40.9487 39.3855C40.8779 39.636 40.8602 39.94 40.8602 40.2619C40.8602 40.5838 40.8956 40.87 40.9487 41.1383C41.0018 41.4066 41.1079 41.6212 41.2141 41.8179C41.3379 42.0146 41.4795 42.1577 41.6564 42.2651C41.8333 42.3724 42.0279 42.426 42.2579 42.426C42.4702 42.426 42.6648 42.3902 42.8417 42.3008C43.0186 42.2114 43.1778 42.0862 43.3017 41.9252C43.4255 41.7643 43.5317 41.5497 43.6024 41.2813C43.6909 40.9952 43.7263 40.6733 43.744 40.3335Z" fill="#AFB1B3"/>
<path d="M50.2005 40.1907C50.112 40.1907 50.0412 40.2086 49.9882 40.2443C49.9351 40.2801 49.882 40.3159 49.8643 40.3696C49.8467 40.4053 49.829 40.4769 49.8113 40.5484C49.7936 40.6378 49.7936 40.7272 49.7936 40.8524V42.2296C49.5459 42.3727 49.2982 42.48 49.0328 42.5336C48.7674 42.5873 48.5021 42.623 48.219 42.623C47.8298 42.623 47.476 42.5694 47.1752 42.4442C46.8744 42.319 46.6091 42.158 46.3967 41.9613C46.1845 41.7467 46.0253 41.5142 45.9014 41.228C45.7952 40.9419 45.7422 40.6557 45.7422 40.3338C45.7422 40.1549 45.7599 39.9582 45.8129 39.7615C45.866 39.5647 45.9191 39.3858 46.0076 39.207C46.096 39.0282 46.2022 38.8672 46.3437 38.7062C46.4852 38.5453 46.6268 38.4022 46.8037 38.2949C46.9806 38.1697 47.1752 38.0802 47.3875 38.0087C47.5998 37.9372 47.8475 37.9014 48.0952 37.9014C48.2898 37.9014 48.449 37.9193 48.5905 37.955C48.732 37.9908 48.8559 38.0266 48.9444 38.0623C49.0505 38.0981 49.1213 38.1339 49.192 38.1697C49.2628 38.2054 49.3159 38.2233 49.3513 38.2233C49.369 38.2233 49.3867 38.2233 49.4044 38.2054C49.422 38.2054 49.4397 38.1875 49.4574 38.1518C49.4751 38.1339 49.4928 38.0981 49.4928 38.0623C49.5105 38.0266 49.5105 37.9729 49.5282 37.9193H49.652L49.7582 39.3322H49.652C49.5812 39.1176 49.4928 38.9387 49.3867 38.7777C49.2805 38.6347 49.1743 38.5095 49.0505 38.4022C48.9267 38.3128 48.7851 38.2412 48.6436 38.1875C48.5021 38.1518 48.3429 38.116 48.1659 38.116C47.9006 38.116 47.6529 38.1697 47.4406 38.277C47.2283 38.3843 47.0514 38.5274 46.9098 38.7062C46.7683 38.8851 46.6621 39.0997 46.5914 39.3501C46.5206 39.6005 46.4852 39.8688 46.4852 40.1549C46.4852 40.3696 46.5029 40.5663 46.5383 40.763C46.5737 40.9598 46.6268 41.1386 46.6975 41.2995C46.7683 41.4605 46.8567 41.6036 46.9629 41.7467C47.0691 41.8719 47.1752 41.997 47.3167 42.0865C47.4406 42.1759 47.5821 42.2475 47.7236 42.3011C47.8652 42.3548 48.0244 42.3727 48.2013 42.3727C48.3606 42.3727 48.5198 42.3548 48.6613 42.319C48.8205 42.2833 48.9621 42.2117 49.1213 42.1223V40.8166C49.1213 40.6735 49.1213 40.5663 49.1036 40.4769C49.0859 40.3874 49.0505 40.3338 49.0151 40.2801C48.9798 40.2265 48.909 40.2086 48.8382 40.1907C48.7674 40.1728 48.6613 40.1549 48.5375 40.1549V40.0476H50.2536V40.1549H50.2005V40.1907Z" fill="#AFB1B3"/>
<path d="M51.2988 42.5155V42.3904H51.4581C51.5466 42.3904 51.635 42.3725 51.6881 42.3546C51.7588 42.3367 51.8119 42.283 51.8473 42.2294C51.9004 42.1757 51.9181 41.9968 51.9181 41.7107V38.7954C51.9181 38.7238 51.9181 38.6523 51.9181 38.5987C51.9181 38.545 51.9181 38.4914 51.9181 38.4556C51.9181 38.4199 51.9004 38.3841 51.9004 38.3662C51.8827 38.3483 51.8827 38.3125 51.865 38.2946C51.8296 38.241 51.7588 38.2052 51.6881 38.1694C51.6173 38.1336 51.5466 38.1158 51.4581 38.1158H51.2988V37.9905H53.2095V38.1158H53.0503C52.8734 38.1158 52.7495 38.1694 52.6611 38.2768C52.6434 38.3125 52.6257 38.3841 52.608 38.4556C52.5903 38.545 52.5903 38.6523 52.5903 38.7775V41.6928C52.5903 41.8359 52.5903 41.961 52.608 42.0326C52.6257 42.1041 52.6434 42.1757 52.6611 42.2115C52.6788 42.2294 52.6965 42.2472 52.7142 42.2651C52.7495 42.283 52.7849 42.3009 52.8203 42.3188C52.8557 42.3367 52.8911 42.3367 52.9442 42.3546C52.9796 42.3725 53.0326 42.3725 53.068 42.3725H53.2272V42.4976H51.2988V42.5155ZM53.1918 36.6492C53.1918 36.7207 53.1565 36.7744 53.1034 36.828C53.0503 36.8817 52.9796 36.9354 52.9088 36.989L51.9358 37.615H51.6704L52.608 36.667C52.6611 36.6134 52.7319 36.5598 52.8026 36.5061C52.8734 36.4704 52.9442 36.4346 53.015 36.4346C53.0326 36.4346 53.0503 36.4346 53.068 36.4525C53.0857 36.4704 53.1034 36.4883 53.1211 36.5061C53.1388 36.524 53.1565 36.5598 53.1741 36.5776C53.1741 36.6134 53.1918 36.6313 53.1918 36.6492Z" fill="#AFB1B3"/>
<path d="M57.5091 41.3711C57.5091 41.55 57.4737 41.7109 57.403 41.854C57.3322 42.0149 57.2437 42.1401 57.1199 42.2475C56.9961 42.3548 56.8545 42.4442 56.6776 42.5158C56.5007 42.5873 56.3237 42.623 56.1115 42.623C55.9522 42.623 55.8284 42.6052 55.7045 42.5873C55.5807 42.5694 55.4746 42.5336 55.3684 42.4979C55.2622 42.4621 55.1915 42.4264 55.1031 42.4085C55.0323 42.3906 54.9615 42.3727 54.9084 42.3727C54.8553 42.3727 54.82 42.3906 54.7846 42.4264C54.7492 42.4621 54.7315 42.5336 54.7138 42.623H54.59V41.0671H54.7138C54.7492 41.2995 54.8023 41.4963 54.873 41.6573C54.9615 41.8183 55.05 41.9613 55.1738 42.0507C55.2976 42.158 55.4215 42.2296 55.5807 42.2833C55.7222 42.3369 55.8814 42.3548 56.0407 42.3548C56.1822 42.3548 56.306 42.3369 56.4122 42.3011C56.5184 42.2654 56.6245 42.2117 56.6953 42.1402C56.766 42.0686 56.8368 41.997 56.8722 41.9077C56.9076 41.8183 56.943 41.7288 56.943 41.6215C56.943 41.5142 56.9253 41.4069 56.8899 41.3353C56.8545 41.2459 56.7837 41.1744 56.6953 41.085C56.6068 41.0134 56.5007 40.924 56.3591 40.8345C56.2176 40.7451 56.0584 40.6557 55.8637 40.5484C55.5984 40.4053 55.3861 40.2622 55.2092 40.137C55.0323 40.0118 54.9084 39.9045 54.8199 39.7972C54.7315 39.6899 54.6608 39.5826 54.6254 39.4574C54.59 39.3501 54.5723 39.2249 54.5723 39.0818C54.5723 38.9208 54.6077 38.7777 54.6608 38.6347C54.7138 38.4916 54.8023 38.3664 54.9261 38.2591C55.0323 38.1518 55.1738 38.0623 55.333 37.9908C55.4923 37.9193 55.6692 37.9014 55.8637 37.9014C55.9876 37.9014 56.1115 37.9193 56.2176 37.9372C56.3237 37.955 56.4122 37.9908 56.5007 38.0266C56.5891 38.0623 56.6599 38.0802 56.7306 38.116C56.8014 38.1339 56.8545 38.1518 56.9076 38.1518C56.9607 38.1518 56.9961 38.1339 57.0314 38.0981C57.0668 38.0623 57.1022 37.9908 57.1199 37.9014H57.2437V39.4574H57.1199C57.1022 39.2428 57.0491 39.0639 56.9784 38.903C56.9076 38.742 56.8191 38.5989 56.6953 38.4916C56.5891 38.3843 56.4653 38.2949 56.3237 38.2412C56.1822 38.1875 56.0407 38.1518 55.8814 38.1518C55.7753 38.1518 55.6692 38.1697 55.5807 38.2054C55.4923 38.2412 55.4038 38.2949 55.333 38.3485C55.2622 38.4201 55.2092 38.4916 55.1738 38.5632C55.1384 38.6526 55.1031 38.742 55.1031 38.8314C55.1031 38.9208 55.1207 39.0103 55.1561 39.0818C55.1915 39.1534 55.2446 39.2249 55.333 39.3143C55.4215 39.3858 55.5277 39.4753 55.6692 39.5647C55.8107 39.6541 55.9876 39.7615 56.2176 39.8866C56.4299 39.9939 56.6068 40.1012 56.7483 40.1907C56.8899 40.2801 56.9961 40.3517 57.0668 40.4053C57.226 40.5126 57.3322 40.6557 57.4207 40.8166C57.4737 41.0134 57.5091 41.1923 57.5091 41.3711Z" fill="#AFB1B3"/>
<path d="M62.4238 39.0634C62.4061 38.974 62.4061 38.9024 62.3884 38.8488C62.3707 38.7951 62.353 38.7414 62.3353 38.6878C62.3176 38.652 62.2999 38.6162 62.2822 38.5804C62.2645 38.5447 62.2292 38.5268 62.2115 38.491C62.1407 38.4195 62.0522 38.3659 61.9638 38.3301C61.8754 38.2943 61.7515 38.2765 61.5923 38.2765H60.9554V41.7283C60.9554 41.8713 60.9554 41.9786 60.9731 42.0681C60.9908 42.1575 61.0085 42.2112 61.0438 42.2469C61.1146 42.3364 61.2561 42.39 61.4331 42.39H61.5923V42.5152H59.6993V42.39H59.8584C59.9469 42.39 60.0354 42.3721 60.1062 42.3542C60.1769 42.3185 60.23 42.2827 60.2654 42.2291C60.2831 42.1933 60.3007 42.1396 60.3184 42.0502C60.3361 41.9786 60.3361 41.8713 60.3361 41.7283V38.2765H59.8054C59.7169 38.2765 59.6462 38.2765 59.5754 38.2765C59.5047 38.2765 59.4516 38.2943 59.4162 38.2943C59.3631 38.3122 59.3277 38.3122 59.2923 38.3301C59.257 38.348 59.2216 38.3659 59.2039 38.4016C59.0447 38.5268 58.9562 38.7414 58.9208 39.0455H58.7793L58.8324 37.9902H62.5299L62.5653 39.0455H62.4238V39.0634Z" fill="#AFB1B3"/>
<path d="M63.6465 42.5152V42.39H63.8057C63.8942 42.39 63.9826 42.3721 64.0357 42.3542C64.1065 42.3364 64.1596 42.2827 64.195 42.2291C64.248 42.1754 64.2657 41.9965 64.2657 41.7104V38.7951C64.2657 38.7235 64.2657 38.652 64.2657 38.5983C64.2657 38.5447 64.2657 38.491 64.2657 38.4553C64.2657 38.4195 64.248 38.3838 64.248 38.3659C64.2303 38.348 64.2303 38.3122 64.2127 38.2943C64.1773 38.2407 64.1065 38.2049 64.0357 38.1691C63.9649 38.1333 63.8765 38.1155 63.8057 38.1155H63.6465V37.9902H65.5572V38.1155H65.398C65.2211 38.1155 65.0972 38.1691 65.0088 38.2765C64.9911 38.3122 64.9734 38.3838 64.9557 38.4553C64.938 38.5447 64.938 38.652 64.938 38.7772V41.6925C64.938 41.8355 64.938 41.9607 64.9557 42.0323C64.9734 42.1038 64.9911 42.1754 65.0088 42.2112C65.0265 42.2291 65.0442 42.2469 65.0619 42.2648C65.0972 42.2827 65.1326 42.3006 65.168 42.3185C65.2034 42.3364 65.2387 42.3364 65.2918 42.3542C65.3272 42.3721 65.3803 42.3721 65.4157 42.3721H65.5749V42.4973H63.6465V42.5152Z" fill="#AFB1B3"/>
<path d="M70.7234 41.4599C70.6171 41.6566 70.4929 41.8355 70.3694 41.9786C70.2452 42.1217 70.1039 42.2469 69.9447 42.3363C69.7856 42.4257 69.6264 42.4972 69.4494 42.5509C69.2724 42.6045 69.0776 42.6224 68.8656 42.6224C68.6358 42.6224 68.4232 42.5866 68.2286 42.533C68.034 42.4793 67.8571 42.3899 67.6979 42.3005C67.5386 42.1932 67.3971 42.0859 67.2733 41.9428C67.1494 41.7997 67.0432 41.6388 66.9548 41.4778C66.8664 41.3168 66.7956 41.12 66.7602 40.9413C66.7249 40.7445 66.6895 40.5477 66.6895 40.351C66.6895 40.0291 66.7425 39.7072 66.8487 39.421C66.9548 39.1348 67.114 38.8666 67.3087 38.6519C67.5032 38.4373 67.751 38.2585 68.034 38.1333C68.3171 38.0081 68.6179 37.9365 68.9719 37.9365C69.1482 37.9365 69.2903 37.9544 69.4137 37.9902C69.5379 38.026 69.6614 38.0617 69.7499 38.0975C69.8384 38.1333 69.9269 38.1691 69.9804 38.2048C70.0332 38.2406 70.0861 38.2585 70.1217 38.2585C70.1746 38.2585 70.2281 38.2406 70.2809 38.1869C70.3337 38.1333 70.3694 38.0617 70.3872 37.9544H70.5107L70.6171 39.4926H70.5107C70.4401 39.26 70.3516 39.0633 70.2631 38.9024C70.1567 38.7414 70.0511 38.5983 69.9269 38.4909C69.8034 38.3837 69.6614 38.3121 69.5022 38.2585C69.3431 38.2048 69.1839 38.1869 69.0069 38.1869C68.7771 38.1869 68.5648 38.2227 68.3701 38.3121C68.1756 38.4015 68.0163 38.5267 67.8748 38.7235C67.7333 38.9024 67.6271 39.1348 67.5563 39.4031C67.4855 39.6714 67.4325 40.0112 67.4325 40.3868C67.4325 40.7087 67.4678 40.9949 67.5563 41.2453C67.6448 41.4957 67.751 41.7103 67.8925 41.8712C68.034 42.0322 68.2109 42.1753 68.4232 42.2469C68.6358 42.3363 68.8656 42.372 69.1133 42.372C69.2546 42.372 69.3966 42.3541 69.5201 42.3363C69.6443 42.3005 69.7677 42.2648 69.8919 42.1932C70.0154 42.1217 70.1217 42.0322 70.2452 41.907C70.3694 41.7818 70.4929 41.6388 70.6171 41.442L70.7234 41.4599Z" fill="#AFB1B3"/>
<path d="M74.7581 42.5154V42.3903C74.9172 42.3903 75.0229 42.3724 75.0935 42.3187C75.1649 42.283 75.1999 42.2114 75.1999 42.1577C75.2177 42.0862 75.1999 42.0146 75.1649 41.9252C75.1292 41.8358 75.0935 41.7464 75.0585 41.657L74.793 41.0131H73.0594L72.7582 41.7285C72.7232 41.8358 72.6876 41.9252 72.6704 41.9967C72.6526 42.0683 72.6526 42.1399 72.6704 42.1935C72.6876 42.2472 72.7411 42.3008 72.8296 42.3187C72.9002 42.3545 73.0237 42.3724 73.1829 42.3903V42.5154H71.7676V42.3903C71.8561 42.3903 71.9446 42.3545 72.0152 42.3366C72.0866 42.3008 72.1572 42.2472 72.2101 42.1935C72.2629 42.122 72.3164 42.0504 72.3692 41.961C72.4228 41.8715 72.4756 41.7643 72.5284 41.6391L74.0857 37.9189H74.2092L75.7659 41.6749C75.8372 41.8358 75.89 41.961 75.9429 42.0504C75.9964 42.1399 76.0492 42.2114 76.102 42.2651C76.1555 42.3187 76.2262 42.3545 76.279 42.3724C76.3497 42.3903 76.421 42.4081 76.5095 42.4081V42.5333H74.7581V42.5154ZM73.9616 38.9384L73.1829 40.7627H74.7224L73.9616 38.9384Z" fill="#AFB1B3"/>
<path d="M83.0542 42.5154V42.3903C83.2134 42.3903 83.3197 42.3724 83.3904 42.3187C83.4611 42.283 83.4967 42.2114 83.4967 42.1577C83.5146 42.0862 83.4967 42.0146 83.4611 41.9252C83.4261 41.8358 83.3904 41.7464 83.3554 41.657L83.0899 41.0131H81.3563L81.0551 41.7285C81.0201 41.8358 80.9844 41.9252 80.9666 41.9967C80.9488 42.0683 80.9488 42.1399 80.9666 42.1935C80.9844 42.2472 81.0373 42.3008 81.1258 42.3187C81.1964 42.3545 81.3206 42.3724 81.4798 42.3903V42.5154H80.0645V42.3903C80.153 42.3903 80.2415 42.3545 80.3121 42.3366C80.3828 42.3008 80.4534 42.2472 80.507 42.1935C80.5598 42.122 80.6133 42.0504 80.6661 41.961C80.7189 41.8715 80.7725 41.7643 80.8253 41.6391L82.3819 37.9189H82.5061L84.0627 41.6749C84.1334 41.8358 84.1869 41.961 84.2397 42.0504C84.2926 42.1399 84.3461 42.2114 84.3989 42.2651C84.4517 42.3187 84.5231 42.3545 84.5759 42.3724C84.6466 42.3903 84.7172 42.4081 84.8057 42.4081V42.5333H83.0542V42.5154ZM82.2584 38.9384L81.4798 40.7627H83.0193L82.2584 38.9384Z" fill="#AFB1B3"/>
<path d="M90.2202 40.2434C90.2202 40.5653 90.1673 40.8515 90.0788 41.1377C89.9725 41.4059 89.8312 41.6564 89.6185 41.8709C89.4065 42.0856 89.1588 42.2466 88.8405 42.3539C88.5222 42.479 88.1504 42.5327 87.7257 42.5327H85.7266V42.4075H85.8857C85.9742 42.4075 86.0627 42.3897 86.1334 42.3718C86.2041 42.336 86.2576 42.3002 86.2925 42.2287C86.3104 42.1929 86.3282 42.1392 86.3461 42.0498C86.3632 41.9604 86.3632 41.8709 86.3632 41.7279V38.8126C86.3632 38.5443 86.3282 38.3655 86.2747 38.2761C86.2219 38.2224 86.1691 38.1866 86.1156 38.1687C86.0449 38.1509 85.9742 38.133 85.9036 38.133H85.7444V38.0078H87.5487C87.7964 38.0078 88.0262 38.0256 88.221 38.0435C88.4159 38.0614 88.5929 38.0972 88.752 38.133C88.9112 38.1687 89.0525 38.2403 89.1767 38.294C89.3002 38.3655 89.4244 38.437 89.53 38.5264C89.6363 38.6158 89.7248 38.7232 89.8133 38.8484C89.9018 38.9736 89.9725 39.0988 90.0253 39.2418C90.0788 39.3849 90.1317 39.5459 90.1673 39.7069C90.2023 39.8857 90.2202 40.0646 90.2202 40.2434ZM89.4772 40.2792C89.4772 39.9751 89.4243 39.689 89.3358 39.4386C89.2473 39.1882 89.1232 38.9736 88.964 38.8126C88.8048 38.6337 88.61 38.5086 88.398 38.4192C88.186 38.3297 87.9384 38.2761 87.6729 38.2761C87.5665 38.2761 87.478 38.2761 87.3545 38.294C87.2482 38.3119 87.124 38.3297 87.0006 38.3655V42.1929C87.1419 42.2287 87.266 42.2466 87.3895 42.2645C87.5137 42.2823 87.6194 42.3002 87.7079 42.3002C87.9555 42.3002 88.2032 42.2645 88.4159 42.1571C88.6278 42.0677 88.8227 41.9246 88.9818 41.7637C89.141 41.5848 89.2652 41.3702 89.3537 41.1198C89.4415 40.8694 89.4772 40.5832 89.4772 40.2792Z" fill="#AFB1B3"/>
<path d="M95.8613 38.1333C95.7728 38.1333 95.6843 38.1512 95.6308 38.187C95.5601 38.2228 95.5073 38.2765 95.4538 38.3659C95.4366 38.4016 95.401 38.4553 95.401 38.5268C95.3831 38.5983 95.3831 38.7057 95.3831 38.8309V40.673C95.3831 40.834 95.3831 40.9771 95.366 41.1201C95.3481 41.2632 95.3303 41.3884 95.3125 41.5136C95.2775 41.6389 95.2418 41.7461 95.189 41.8534C95.1355 41.9607 95.0648 42.0502 94.9941 42.1396C94.9056 42.2291 94.835 42.3006 94.7465 42.3542C94.658 42.4079 94.5695 42.4615 94.4631 42.5152C94.3575 42.5509 94.2333 42.5867 94.1098 42.6046C93.9857 42.6225 93.8265 42.6404 93.6673 42.6404C93.3668 42.6404 93.1013 42.6046 92.9065 42.533C92.6945 42.4615 92.5347 42.3721 92.4112 42.2648C92.287 42.1575 92.1814 42.0323 92.1107 41.8892C92.0394 41.7461 92.0044 41.6031 91.9687 41.4421C91.9337 41.299 91.9337 41.138 91.9159 40.995C91.9159 40.8519 91.9159 40.7088 91.9159 40.6015V38.8309C91.9159 38.6878 91.9159 38.5804 91.898 38.491C91.8802 38.4016 91.8452 38.3301 91.8095 38.2943C91.7745 38.2407 91.721 38.2228 91.6682 38.187C91.6154 38.1691 91.5269 38.1512 91.4384 38.1512H91.332V38.026H93.1363V38.1512H92.9593C92.8708 38.1512 92.8002 38.1691 92.7473 38.187C92.6945 38.2228 92.6588 38.2586 92.6232 38.3122C92.606 38.348 92.5882 38.4195 92.5703 38.491C92.5525 38.5804 92.5525 38.6699 92.5525 38.7951V40.7625C92.5525 40.8519 92.5525 40.9592 92.5525 41.0844C92.5525 41.1917 92.5704 41.3169 92.5882 41.4242C92.606 41.5315 92.641 41.6567 92.6945 41.764C92.7473 41.8713 92.8002 41.9607 92.8887 42.0502C92.9772 42.1396 93.0835 42.1933 93.207 42.2469C93.3312 42.3006 93.4903 42.3185 93.6852 42.3185C93.8265 42.3185 93.9507 42.3006 94.0563 42.2827C94.1627 42.2469 94.269 42.2291 94.3575 42.1754C94.446 42.1396 94.5345 42.086 94.5873 42.0502C94.658 41.9965 94.7108 41.9607 94.7465 41.925C94.7993 41.8713 94.8528 41.7998 94.8878 41.7283C94.9235 41.6567 94.9585 41.5673 94.9763 41.4958C94.9941 41.4063 95.012 41.3348 95.0298 41.2453C95.047 41.1559 95.047 41.0844 95.047 40.995C95.047 40.9234 95.047 40.8519 95.047 40.7803V38.7951C95.047 38.652 95.047 38.5447 95.0298 38.4553C95.012 38.3659 94.9941 38.3122 94.9585 38.2586C94.87 38.1691 94.7465 38.1155 94.5695 38.1155H94.4103V37.9902H95.9848V38.1155H95.8613V38.1333Z" fill="#AFB1B3"/>
<path d="M99.896 42.5154V42.3903C100.055 42.3903 100.162 42.3724 100.232 42.3187C100.303 42.283 100.339 42.2114 100.339 42.1577C100.356 42.0862 100.339 42.0146 100.303 41.9252C100.268 41.8358 100.232 41.7464 100.197 41.657L99.9317 41.0131H98.1974L97.8969 41.7285C97.8612 41.8358 97.8262 41.9252 97.8084 41.9967C97.7906 42.0683 97.7906 42.1399 97.8084 42.1935C97.8262 42.2472 97.8791 42.3008 97.9676 42.3187C98.0382 42.3545 98.1624 42.3724 98.3216 42.3903V42.5154H96.9062V42.3903C96.9947 42.3903 97.0833 42.3545 97.1539 42.3366C97.2246 42.3008 97.2952 42.2472 97.3488 42.1935C97.4016 42.122 97.4544 42.0504 97.5079 41.961C97.5607 41.8715 97.6136 41.7643 97.6671 41.6391L99.2237 37.9189H99.3479L100.905 41.6749C100.975 41.8358 101.028 41.961 101.082 42.0504C101.134 42.1399 101.188 42.2114 101.241 42.2651C101.294 42.3187 101.364 42.3545 101.418 42.3724C101.488 42.3903 101.559 42.4081 101.648 42.4081V42.5333H99.896V42.5154ZM99.1002 38.9384L98.3216 40.7627H99.8604L99.1002 38.9384Z" fill="#AFB1B3"/>
<path d="M107.063 38.133C106.974 38.133 106.886 38.1509 106.815 38.1687C106.744 38.2045 106.691 38.2403 106.656 38.294C106.603 38.3655 106.585 38.5264 106.585 38.7947V42.5863H106.461L103.507 38.9557V41.7279C103.507 41.9961 103.542 42.175 103.595 42.2466C103.684 42.336 103.807 42.3897 103.984 42.3897H104.143V42.5148H102.587V42.3897H102.746C102.852 42.3897 102.923 42.3718 102.994 42.3539C103.064 42.3181 103.117 42.2823 103.153 42.2287C103.171 42.1929 103.206 42.1392 103.206 42.0498C103.223 41.9783 103.223 41.8709 103.223 41.7279V38.598C103.206 38.5801 103.171 38.5443 103.135 38.4907C103.1 38.4371 103.064 38.3834 103.011 38.3297C102.958 38.2761 102.887 38.2403 102.799 38.1866C102.71 38.1509 102.604 38.133 102.48 38.133V38.0078H103.577L106.302 41.3881V38.7947C106.302 38.5086 106.267 38.3297 106.213 38.2761C106.125 38.1866 106.001 38.133 105.824 38.133H105.683V38.0078H107.222V38.133H107.063Z" fill="#AFB1B3"/>
<path d="M111.113 42.5154V42.3903C111.272 42.3903 111.378 42.3724 111.449 42.3187C111.52 42.283 111.555 42.2114 111.555 42.1577C111.572 42.0862 111.555 42.0146 111.52 41.9252C111.484 41.8358 111.449 41.7464 111.413 41.657L111.148 41.0131H109.414L109.114 41.7285C109.078 41.8358 109.042 41.9252 109.025 41.9967C109.007 42.0683 109.007 42.1399 109.025 42.1935C109.042 42.2472 109.096 42.3008 109.184 42.3187C109.255 42.3545 109.379 42.3724 109.538 42.3903V42.5154H108.123V42.3903C108.211 42.3903 108.299 42.3545 108.371 42.3366C108.441 42.3008 108.512 42.2472 108.565 42.1935C108.618 42.122 108.671 42.0504 108.724 41.961C108.778 41.8715 108.83 41.7643 108.883 41.6391L110.441 37.9189H110.564L112.121 41.6749C112.192 41.8358 112.245 41.961 112.298 42.0504C112.351 42.1399 112.404 42.2114 112.457 42.2651C112.51 42.3187 112.581 42.3545 112.634 42.3724C112.705 42.3903 112.776 42.4081 112.864 42.4081V42.5333H111.113V42.5154ZM110.316 38.9384L109.538 40.7627H111.077L110.316 38.9384Z" fill="#AFB1B3"/>
<path d="M117.253 42.5156H113.785V42.3904C113.874 42.3904 113.962 42.3903 114.051 42.3725C114.139 42.3546 114.193 42.3367 114.263 42.3009C114.316 42.2651 114.369 42.2115 114.405 42.1399C114.44 42.0684 114.457 41.9611 114.457 41.8359V38.706C114.457 38.5808 114.44 38.4735 114.405 38.402C114.369 38.3304 114.334 38.2767 114.263 38.241C114.21 38.2052 114.139 38.1694 114.051 38.1694C113.962 38.1516 113.874 38.1516 113.785 38.1516V38.0264H115.714V38.1516C115.608 38.1516 115.519 38.1516 115.449 38.1694C115.36 38.1873 115.307 38.2052 115.236 38.241C115.183 38.2767 115.13 38.3304 115.095 38.4199C115.059 38.4914 115.041 38.5987 115.041 38.7239V41.6928C115.041 41.818 115.059 41.9254 115.077 41.9969C115.095 42.0684 115.13 42.122 115.183 42.1578C115.236 42.1936 115.289 42.2115 115.36 42.2294C115.431 42.2473 115.519 42.2472 115.608 42.2472H116.05C116.192 42.2472 116.297 42.2472 116.404 42.2472C116.51 42.2472 116.581 42.2294 116.651 42.2115C116.722 42.1936 116.793 42.1757 116.846 42.1578C116.899 42.1399 116.952 42.1042 117.005 42.0505C117.058 41.9969 117.112 41.9611 117.147 41.9075C117.182 41.8538 117.235 41.8002 117.271 41.7465C117.306 41.6928 117.342 41.6213 117.377 41.5497C117.412 41.4782 117.448 41.3888 117.501 41.2815L117.607 41.2994L117.253 42.5156Z" fill="#AFB1B3"/>
</g>
<defs>
<clipPath id="clip0_202_107">
<rect width="118" height="43" fill="white"/>
</clipPath>
</defs>
</svg>
